%TF.GenerationSoftware,KiCad,Pcbnew,8.0.1*%
%TF.CreationDate,2024-08-12T12:56:14+02:00*%
%TF.ProjectId,Test_NH,54657374-5f4e-4482-9e6b-696361645f70,rev?*%
%TF.SameCoordinates,Original*%
%TF.FileFunction,Copper,L1,Top*%
%TF.FilePolarity,Positive*%
%FSLAX46Y46*%
G04 Gerber Fmt 4.6, Leading zero omitted, Abs format (unit mm)*
G04 Created by KiCad (PCBNEW 8.0.1) date 2024-08-12 12:56:14*
%MOMM*%
%LPD*%
G01*
G04 APERTURE LIST*
G04 Aperture macros list*
%AMRoundRect*
0 Rectangle with rounded corners*
0 $1 Rounding radius*
0 $2 $3 $4 $5 $6 $7 $8 $9 X,Y pos of 4 corners*
0 Add a 4 corners polygon primitive as box body*
4,1,4,$2,$3,$4,$5,$6,$7,$8,$9,$2,$3,0*
0 Add four circle primitives for the rounded corners*
1,1,$1+$1,$2,$3*
1,1,$1+$1,$4,$5*
1,1,$1+$1,$6,$7*
1,1,$1+$1,$8,$9*
0 Add four rect primitives between the rounded corners*
20,1,$1+$1,$2,$3,$4,$5,0*
20,1,$1+$1,$4,$5,$6,$7,0*
20,1,$1+$1,$6,$7,$8,$9,0*
20,1,$1+$1,$8,$9,$2,$3,0*%
%AMFreePoly0*
4,1,14,0.314644,0.085355,0.385355,0.014644,0.400000,-0.020711,0.400000,-0.050000,0.385355,-0.085355,0.350000,-0.100000,-0.350000,-0.100000,-0.385355,-0.085355,-0.400000,-0.050000,-0.400000,0.050000,-0.385355,0.085355,-0.350000,0.100000,0.279289,0.100000,0.314644,0.085355,0.314644,0.085355,$1*%
%AMFreePoly1*
4,1,14,0.385355,0.085355,0.400000,0.050000,0.400000,0.020711,0.385355,-0.014644,0.314644,-0.085355,0.279289,-0.100000,-0.350000,-0.100000,-0.385355,-0.085355,-0.400000,-0.050000,-0.400000,0.050000,-0.385355,0.085355,-0.350000,0.100000,0.350000,0.100000,0.385355,0.085355,0.385355,0.085355,$1*%
%AMFreePoly2*
4,1,14,0.085355,0.385355,0.100000,0.350000,0.100000,-0.350000,0.085355,-0.385355,0.050000,-0.400000,-0.050000,-0.400000,-0.085355,-0.385355,-0.100000,-0.350000,-0.100000,0.279289,-0.085355,0.314644,-0.014644,0.385355,0.020711,0.400000,0.050000,0.400000,0.085355,0.385355,0.085355,0.385355,$1*%
%AMFreePoly3*
4,1,14,0.014644,0.385355,0.085355,0.314644,0.100000,0.279289,0.100000,-0.350000,0.085355,-0.385355,0.050000,-0.400000,-0.050000,-0.400000,-0.085355,-0.385355,-0.100000,-0.350000,-0.100000,0.350000,-0.085355,0.385355,-0.050000,0.400000,-0.020711,0.400000,0.014644,0.385355,0.014644,0.385355,$1*%
%AMFreePoly4*
4,1,14,0.385355,0.085355,0.400000,0.050000,0.400000,-0.050000,0.385355,-0.085355,0.350000,-0.100000,-0.279289,-0.100000,-0.314644,-0.085355,-0.385355,-0.014644,-0.400000,0.020711,-0.400000,0.050000,-0.385355,0.085355,-0.350000,0.100000,0.350000,0.100000,0.385355,0.085355,0.385355,0.085355,$1*%
%AMFreePoly5*
4,1,14,0.385355,0.085355,0.400000,0.050000,0.400000,-0.050000,0.385355,-0.085355,0.350000,-0.100000,-0.350000,-0.100000,-0.385355,-0.085355,-0.400000,-0.050000,-0.400000,-0.020711,-0.385355,0.014644,-0.314644,0.085355,-0.279289,0.100000,0.350000,0.100000,0.385355,0.085355,0.385355,0.085355,$1*%
%AMFreePoly6*
4,1,14,0.085355,0.385355,0.100000,0.350000,0.100000,-0.279289,0.085355,-0.314644,0.014644,-0.385355,-0.020711,-0.400000,-0.050000,-0.400000,-0.085355,-0.385355,-0.100000,-0.350000,-0.100000,0.350000,-0.085355,0.385355,-0.050000,0.400000,0.050000,0.400000,0.085355,0.385355,0.085355,0.385355,$1*%
%AMFreePoly7*
4,1,14,0.085355,0.385355,0.100000,0.350000,0.100000,-0.350000,0.085355,-0.385355,0.050000,-0.400000,0.020711,-0.400000,-0.014644,-0.385355,-0.085355,-0.314644,-0.100000,-0.279289,-0.100000,0.350000,-0.085355,0.385355,-0.050000,0.400000,0.050000,0.400000,0.085355,0.385355,0.085355,0.385355,$1*%
G04 Aperture macros list end*
%TA.AperFunction,EtchedComponent*%
%ADD10C,0.000000*%
%TD*%
%TA.AperFunction,SMDPad,CuDef*%
%ADD11RoundRect,0.100000X-0.217500X-0.100000X0.217500X-0.100000X0.217500X0.100000X-0.217500X0.100000X0*%
%TD*%
%TA.AperFunction,SMDPad,CuDef*%
%ADD12RoundRect,0.100000X0.100000X-0.217500X0.100000X0.217500X-0.100000X0.217500X-0.100000X-0.217500X0*%
%TD*%
%TA.AperFunction,SMDPad,CuDef*%
%ADD13RoundRect,0.100000X-0.100000X0.217500X-0.100000X-0.217500X0.100000X-0.217500X0.100000X0.217500X0*%
%TD*%
%TA.AperFunction,SMDPad,CuDef*%
%ADD14RoundRect,0.100000X0.217500X0.100000X-0.217500X0.100000X-0.217500X-0.100000X0.217500X-0.100000X0*%
%TD*%
%TA.AperFunction,SMDPad,CuDef*%
%ADD15R,0.750000X0.850000*%
%TD*%
%TA.AperFunction,SMDPad,CuDef*%
%ADD16R,0.952500X0.558800*%
%TD*%
%TA.AperFunction,SMDPad,CuDef*%
%ADD17FreePoly0,0.000000*%
%TD*%
%TA.AperFunction,SMDPad,CuDef*%
%ADD18RoundRect,0.050000X-0.350000X-0.050000X0.350000X-0.050000X0.350000X0.050000X-0.350000X0.050000X0*%
%TD*%
%TA.AperFunction,SMDPad,CuDef*%
%ADD19FreePoly1,0.000000*%
%TD*%
%TA.AperFunction,SMDPad,CuDef*%
%ADD20FreePoly2,0.000000*%
%TD*%
%TA.AperFunction,SMDPad,CuDef*%
%ADD21RoundRect,0.050000X-0.050000X-0.350000X0.050000X-0.350000X0.050000X0.350000X-0.050000X0.350000X0*%
%TD*%
%TA.AperFunction,SMDPad,CuDef*%
%ADD22FreePoly3,0.000000*%
%TD*%
%TA.AperFunction,SMDPad,CuDef*%
%ADD23FreePoly4,0.000000*%
%TD*%
%TA.AperFunction,SMDPad,CuDef*%
%ADD24FreePoly5,0.000000*%
%TD*%
%TA.AperFunction,SMDPad,CuDef*%
%ADD25FreePoly6,0.000000*%
%TD*%
%TA.AperFunction,SMDPad,CuDef*%
%ADD26FreePoly7,0.000000*%
%TD*%
%TA.AperFunction,HeatsinkPad*%
%ADD27R,2.650000X2.650000*%
%TD*%
%TA.AperFunction,SMDPad,CuDef*%
%ADD28RoundRect,0.160000X-0.160000X0.222500X-0.160000X-0.222500X0.160000X-0.222500X0.160000X0.222500X0*%
%TD*%
%TA.AperFunction,SMDPad,CuDef*%
%ADD29RoundRect,0.160000X0.160000X-0.222500X0.160000X0.222500X-0.160000X0.222500X-0.160000X-0.222500X0*%
%TD*%
%TA.AperFunction,ConnectorPad*%
%ADD30R,0.500000X0.500000*%
%TD*%
%TA.AperFunction,ComponentPad*%
%ADD31R,0.900000X0.500000*%
%TD*%
%TA.AperFunction,SMDPad,CuDef*%
%ADD32FreePoly0,180.000000*%
%TD*%
%TA.AperFunction,SMDPad,CuDef*%
%ADD33RoundRect,0.050000X0.350000X0.050000X-0.350000X0.050000X-0.350000X-0.050000X0.350000X-0.050000X0*%
%TD*%
%TA.AperFunction,SMDPad,CuDef*%
%ADD34FreePoly1,180.000000*%
%TD*%
%TA.AperFunction,SMDPad,CuDef*%
%ADD35FreePoly2,180.000000*%
%TD*%
%TA.AperFunction,SMDPad,CuDef*%
%ADD36RoundRect,0.050000X0.050000X0.350000X-0.050000X0.350000X-0.050000X-0.350000X0.050000X-0.350000X0*%
%TD*%
%TA.AperFunction,SMDPad,CuDef*%
%ADD37FreePoly3,180.000000*%
%TD*%
%TA.AperFunction,SMDPad,CuDef*%
%ADD38FreePoly4,180.000000*%
%TD*%
%TA.AperFunction,SMDPad,CuDef*%
%ADD39FreePoly5,180.000000*%
%TD*%
%TA.AperFunction,SMDPad,CuDef*%
%ADD40FreePoly6,180.000000*%
%TD*%
%TA.AperFunction,SMDPad,CuDef*%
%ADD41FreePoly7,180.000000*%
%TD*%
%TA.AperFunction,SMDPad,CuDef*%
%ADD42R,0.279400X0.279400*%
%TD*%
%TA.AperFunction,SMDPad,CuDef*%
%ADD43R,1.524000X0.800000*%
%TD*%
%TA.AperFunction,SMDPad,CuDef*%
%ADD44R,0.800000X1.524000*%
%TD*%
%TA.AperFunction,SMDPad,CuDef*%
%ADD45R,0.558800X0.952500*%
%TD*%
%TA.AperFunction,ViaPad*%
%ADD46C,0.400000*%
%TD*%
%TA.AperFunction,Conductor*%
%ADD47C,0.200000*%
%TD*%
%TA.AperFunction,Conductor*%
%ADD48C,0.300000*%
%TD*%
%TA.AperFunction,Conductor*%
%ADD49C,0.400000*%
%TD*%
%TA.AperFunction,Conductor*%
%ADD50C,0.250000*%
%TD*%
%TA.AperFunction,Conductor*%
%ADD51C,0.500000*%
%TD*%
G04 APERTURE END LIST*
D10*
%TA.AperFunction,EtchedComponent*%
%TO.C,AE1*%
G36*
X137005000Y-101977500D02*
G01*
X139005000Y-101977500D01*
X139005000Y-99337500D01*
X141705000Y-99337500D01*
X141705000Y-101977500D01*
X143705000Y-101977500D01*
X143705000Y-99337500D01*
X146405000Y-99337500D01*
X146405000Y-103777500D01*
X145905000Y-103777500D01*
X145905000Y-99837500D01*
X144205000Y-99837500D01*
X144205000Y-102477500D01*
X141205000Y-102477500D01*
X141205000Y-99837500D01*
X139505000Y-99837500D01*
X139505000Y-102477500D01*
X136505000Y-102477500D01*
X136505000Y-99837500D01*
X134805000Y-99837500D01*
X134805000Y-104737500D01*
X134305000Y-104737500D01*
X134305000Y-99837500D01*
X132905000Y-99837500D01*
X132905000Y-104737500D01*
X132005000Y-104737500D01*
X132005000Y-104494285D01*
X132307417Y-104494285D01*
X132317258Y-104541895D01*
X132341326Y-104584297D01*
X132379269Y-104617081D01*
X132387181Y-104621435D01*
X132429844Y-104633543D01*
X132478363Y-104632800D01*
X132523878Y-104619900D01*
X132542489Y-104609287D01*
X132576132Y-104574053D01*
X132596691Y-104528868D01*
X132603222Y-104479342D01*
X132594782Y-104431083D01*
X132577888Y-104398857D01*
X132542628Y-104366187D01*
X132497318Y-104346092D01*
X132447733Y-104339518D01*
X132399647Y-104347408D01*
X132366755Y-104364314D01*
X132331815Y-104401084D01*
X132312153Y-104445878D01*
X132307417Y-104494285D01*
X132005000Y-104494285D01*
X132005000Y-99337500D01*
X137005000Y-99337500D01*
X137005000Y-101977500D01*
G37*
%TD.AperFunction*%
%TA.AperFunction,EtchedComponent*%
%TO.C,AE2*%
G36*
X166590000Y-104290000D02*
G01*
X161590000Y-104290000D01*
X161590000Y-101650000D01*
X159590000Y-101650000D01*
X159590000Y-104290000D01*
X156890000Y-104290000D01*
X156890000Y-101650000D01*
X154890000Y-101650000D01*
X154890000Y-104290000D01*
X152190000Y-104290000D01*
X152190000Y-99850000D01*
X152690000Y-99850000D01*
X152690000Y-103790000D01*
X154390000Y-103790000D01*
X154390000Y-101150000D01*
X157390000Y-101150000D01*
X157390000Y-103790000D01*
X159090000Y-103790000D01*
X159090000Y-101150000D01*
X162090000Y-101150000D01*
X162090000Y-103790000D01*
X163790000Y-103790000D01*
X163790000Y-98890000D01*
X164290000Y-98890000D01*
X164290000Y-103790000D01*
X165690000Y-103790000D01*
X165690000Y-99148158D01*
X165991778Y-99148158D01*
X166000218Y-99196417D01*
X166017112Y-99228643D01*
X166052372Y-99261313D01*
X166097682Y-99281408D01*
X166147267Y-99287982D01*
X166195353Y-99280092D01*
X166228245Y-99263186D01*
X166263185Y-99226416D01*
X166282847Y-99181622D01*
X166287583Y-99133215D01*
X166277742Y-99085605D01*
X166253674Y-99043203D01*
X166215731Y-99010419D01*
X166207819Y-99006065D01*
X166165156Y-98993957D01*
X166116637Y-98994700D01*
X166071122Y-99007600D01*
X166052511Y-99018213D01*
X166018868Y-99053447D01*
X165998309Y-99098632D01*
X165991778Y-99148158D01*
X165690000Y-99148158D01*
X165690000Y-98890000D01*
X166590000Y-98890000D01*
X166590000Y-99133215D01*
X166590000Y-104290000D01*
G37*
%TD.AperFunction*%
%TD*%
D11*
%TO.P,C15,1*%
%TO.N,VDD*%
X115442500Y-107895000D03*
%TO.P,C15,2*%
%TO.N,GND*%
X116257500Y-107895000D03*
%TD*%
D12*
%TO.P,C21,1*%
%TO.N,GND*%
X179120000Y-107862500D03*
%TO.P,C21,2*%
%TO.N,Net-(U5-DACVSS)*%
X179120000Y-107047500D03*
%TD*%
D13*
%TO.P,R2,1*%
%TO.N,GND*%
X131230000Y-106815000D03*
%TO.P,R2,2*%
%TO.N,/VBUS*%
X131230000Y-107630000D03*
%TD*%
D14*
%TO.P,C10,1*%
%TO.N,VDD*%
X115727500Y-104035000D03*
%TO.P,C10,2*%
%TO.N,GND*%
X114912500Y-104035000D03*
%TD*%
D15*
%TO.P,Y1,1,1*%
%TO.N,Net-(U2-BT_OSCI)*%
X126615000Y-105255000D03*
%TO.P,Y1,2,2*%
%TO.N,GND*%
X126615000Y-103905000D03*
%TO.P,Y1,3,3*%
%TO.N,Net-(U2-BT_OSCO)*%
X125565000Y-103905000D03*
%TO.P,Y1,4,4*%
%TO.N,GND*%
X125565000Y-105255000D03*
%TD*%
D11*
%TO.P,C19,1*%
%TO.N,GND*%
X180382500Y-107625000D03*
%TO.P,C19,2*%
%TO.N,Net-(C19-Pad2)*%
X181197500Y-107625000D03*
%TD*%
D13*
%TO.P,C16,1*%
%TO.N,GND*%
X176140000Y-107047500D03*
%TO.P,C16,2*%
%TO.N,/MIC_BIAS*%
X176140000Y-107862500D03*
%TD*%
D16*
%TO.P,U1,1,VIN*%
%TO.N,+BATT*%
X110512050Y-100165200D03*
%TO.P,U1,2,GND*%
%TO.N,GND*%
X110512050Y-101105000D03*
%TO.P,U1,3,EN*%
%TO.N,+BATT*%
X110512050Y-102044800D03*
%TO.P,U1,4,NC*%
%TO.N,unconnected-(U1-NC-Pad4)*%
X113267950Y-102044800D03*
%TO.P,U1,5,VOUT*%
%TO.N,VDD*%
X113267950Y-100165200D03*
%TD*%
D12*
%TO.P,C18,1*%
%TO.N,/MIC_BIAS*%
X177390000Y-107862500D03*
%TO.P,C18,2*%
%TO.N,/MIC*%
X177390000Y-107047500D03*
%TD*%
D17*
%TO.P,U2,1,VCOM0*%
%TO.N,Net-(U2-VCOM0)*%
X120010000Y-101985000D03*
D18*
%TO.P,U2,2,DACL*%
%TO.N,unconnected-(U2-DACL-Pad2)*%
X120010000Y-102385000D03*
%TO.P,U2,3,DACR*%
%TO.N,Net-(U2-DACR)*%
X120010000Y-102785000D03*
%TO.P,U2,4,FMIP*%
%TO.N,unconnected-(U2-FMIP-Pad4)*%
X120010000Y-103185000D03*
%TO.P,U2,5,PB11*%
%TO.N,/CS*%
X120010000Y-103585000D03*
%TO.P,U2,6,PB10*%
%TO.N,/DO*%
X120010000Y-103985000D03*
%TO.P,U2,7,PB9*%
%TO.N,/CLK*%
X120010000Y-104385000D03*
D19*
%TO.P,U2,8,PB8*%
%TO.N,/DI*%
X120010000Y-104785000D03*
D20*
%TO.P,U2,9,LDO_IN/PB5*%
%TO.N,/VBUS*%
X120560000Y-105335000D03*
D21*
%TO.P,U2,10,VBAT*%
%TO.N,+BATT*%
X120960000Y-105335000D03*
%TO.P,U2,11,BT_AVDD*%
%TO.N,Net-(U2-BT_AVDD)*%
X121360000Y-105335000D03*
%TO.P,U2,12,PB3*%
%TO.N,/INT2*%
X121760000Y-105335000D03*
%TO.P,U2,13,PB2*%
%TO.N,/INT1*%
X122160000Y-105335000D03*
%TO.P,U2,14,PB1*%
X122560000Y-105335000D03*
%TO.P,U2,15,PB0*%
%TO.N,/TX*%
X122960000Y-105335000D03*
D22*
%TO.P,U2,16,BT_RF*%
%TO.N,Net-(U2-BT_RF)*%
X123360000Y-105335000D03*
D23*
%TO.P,U2,17,BT_OSCI*%
%TO.N,Net-(U2-BT_OSCI)*%
X123910000Y-104785000D03*
D18*
%TO.P,U2,18,BT_OSCO*%
%TO.N,Net-(U2-BT_OSCO)*%
X123910000Y-104385000D03*
%TO.P,U2,19,PC5*%
%TO.N,unconnected-(U2-PC5-Pad19)*%
X123910000Y-103985000D03*
%TO.P,U2,20,PC4*%
%TO.N,unconnected-(U2-PC4-Pad20)*%
X123910000Y-103585000D03*
%TO.P,U2,21,PC3*%
%TO.N,unconnected-(U2-PC3-Pad21)*%
X123910000Y-103185000D03*
%TO.P,U2,22,PC2*%
%TO.N,unconnected-(U2-PC2-Pad22)*%
X123910000Y-102785000D03*
%TO.P,U2,23,USBDM*%
%TO.N,/USBDM*%
X123910000Y-102385000D03*
D24*
%TO.P,U2,24,USBDP*%
%TO.N,/USBDP*%
X123910000Y-101985000D03*
D25*
%TO.P,U2,25,PA10*%
%TO.N,Net-(J4-Pin_1)*%
X123360000Y-101435000D03*
D21*
%TO.P,U2,26,PA9*%
%TO.N,Net-(J3-Pin_1)*%
X122960000Y-101435000D03*
%TO.P,U2,27,PA1*%
%TO.N,unconnected-(U2-PA1-Pad27)*%
X122560000Y-101435000D03*
%TO.P,U2,28,PA0*%
%TO.N,unconnected-(U2-PA0-Pad28)*%
X122160000Y-101435000D03*
%TO.P,U2,29,PC7*%
%TO.N,/MIC_BIAS*%
X121760000Y-101435000D03*
%TO.P,U2,30,MIC*%
%TO.N,/MIC*%
X121360000Y-101435000D03*
%TO.P,U2,31,VDDIO*%
%TO.N,Net-(U2-VDDIO)*%
X120960000Y-101435000D03*
D26*
%TO.P,U2,32,DACVSS*%
%TO.N,Net-(U2-DACVSS)*%
X120560000Y-101435000D03*
D27*
%TO.P,U2,33,EP*%
%TO.N,GND*%
X121960000Y-103385000D03*
%TD*%
D28*
%TO.P,L3,1,1*%
%TO.N,GND*%
X130465000Y-103530000D03*
%TO.P,L3,2,2*%
%TO.N,Net-(AE1-A)*%
X130465000Y-104675000D03*
%TD*%
D13*
%TO.P,C23,1*%
%TO.N,GND*%
X179680000Y-99325000D03*
%TO.P,C23,2*%
%TO.N,+BATT*%
X179680000Y-100140000D03*
%TD*%
D11*
%TO.P,C13,1*%
%TO.N,VDD*%
X113782500Y-99105000D03*
%TO.P,C13,2*%
%TO.N,GND*%
X114597500Y-99105000D03*
%TD*%
%TO.P,C29,1*%
%TO.N,Net-(AE2-A)*%
X168732500Y-100045000D03*
%TO.P,C29,2*%
%TO.N,Net-(U5-BT_RF)*%
X169547500Y-100045000D03*
%TD*%
D13*
%TO.P,C2,1*%
%TO.N,+BATT*%
X109242950Y-100257700D03*
%TO.P,C2,2*%
%TO.N,GND*%
X109242950Y-101072700D03*
%TD*%
D15*
%TO.P,Y2,1,1*%
%TO.N,Net-(U5-BT_OSCI)*%
X172400000Y-101835000D03*
%TO.P,Y2,2,2*%
%TO.N,GND*%
X172400000Y-103185000D03*
%TO.P,Y2,3,3*%
%TO.N,Net-(U5-BT_OSCO)*%
X173450000Y-103185000D03*
%TO.P,Y2,4,4*%
%TO.N,GND*%
X173450000Y-101835000D03*
%TD*%
D12*
%TO.P,C1,1*%
%TO.N,GND*%
X122665000Y-100012500D03*
%TO.P,C1,2*%
%TO.N,/MIC_BIAS*%
X122665000Y-99197500D03*
%TD*%
D11*
%TO.P,C25,1*%
%TO.N,VDD*%
X183317000Y-102579100D03*
%TO.P,C25,2*%
%TO.N,GND*%
X184132000Y-102579100D03*
%TD*%
D29*
%TO.P,L6,1,1*%
%TO.N,GND*%
X168540000Y-102367500D03*
%TO.P,L6,2,2*%
%TO.N,Net-(AE2-A)*%
X168540000Y-101222500D03*
%TD*%
D12*
%TO.P,C12,1*%
%TO.N,GND*%
X119690000Y-107705000D03*
%TO.P,C12,2*%
%TO.N,+BATT*%
X119690000Y-106890000D03*
%TD*%
D11*
%TO.P,C28,1*%
%TO.N,VDD*%
X187212500Y-98915000D03*
%TO.P,C28,2*%
%TO.N,GND*%
X188027500Y-98915000D03*
%TD*%
D30*
%TO.P,AE1,1,A*%
%TO.N,Net-(AE1-A)*%
X134555000Y-104487500D03*
D31*
%TO.P,AE1,2,Shield*%
%TO.N,GND*%
X132455000Y-104487500D03*
%TD*%
D32*
%TO.P,U5,1,VCOM0*%
%TO.N,Net-(U5-VCOM0)*%
X178980000Y-104935000D03*
D33*
%TO.P,U5,2,DACL*%
%TO.N,Net-(U5-DACL)*%
X178980000Y-104535000D03*
%TO.P,U5,3,DACR*%
%TO.N,unconnected-(U5-DACR-Pad3)*%
X178980000Y-104135000D03*
%TO.P,U5,4,FMIP*%
%TO.N,unconnected-(U5-FMIP-Pad4)*%
X178980000Y-103735000D03*
%TO.P,U5,5,PB11*%
%TO.N,/CS*%
X178980000Y-103335000D03*
%TO.P,U5,6,PB10*%
%TO.N,/DO*%
X178980000Y-102935000D03*
%TO.P,U5,7,PB9*%
%TO.N,/CLK*%
X178980000Y-102535000D03*
D34*
%TO.P,U5,8,PB8*%
%TO.N,/DI*%
X178980000Y-102135000D03*
D35*
%TO.P,U5,9,LDO_IN/PB5*%
%TO.N,/VBUS*%
X178430000Y-101585000D03*
D36*
%TO.P,U5,10,VBAT*%
%TO.N,+BATT*%
X178030000Y-101585000D03*
%TO.P,U5,11,BT_AVDD*%
%TO.N,Net-(U5-BT_AVDD)*%
X177630000Y-101585000D03*
%TO.P,U5,12,PB3*%
%TO.N,/INT2*%
X177230000Y-101585000D03*
%TO.P,U5,13,PB2*%
%TO.N,/INT1*%
X176830000Y-101585000D03*
%TO.P,U5,14,PB1*%
X176430000Y-101585000D03*
%TO.P,U5,15,PB0*%
%TO.N,/TX*%
X176030000Y-101585000D03*
D37*
%TO.P,U5,16,BT_RF*%
%TO.N,Net-(U5-BT_RF)*%
X175630000Y-101585000D03*
D38*
%TO.P,U5,17,BT_OSCI*%
%TO.N,Net-(U5-BT_OSCI)*%
X175080000Y-102135000D03*
D33*
%TO.P,U5,18,BT_OSCO*%
%TO.N,Net-(U5-BT_OSCO)*%
X175080000Y-102535000D03*
%TO.P,U5,19,PC5*%
%TO.N,unconnected-(U5-PC5-Pad19)*%
X175080000Y-102935000D03*
%TO.P,U5,20,PC4*%
%TO.N,unconnected-(U5-PC4-Pad20)*%
X175080000Y-103335000D03*
%TO.P,U5,21,PC3*%
%TO.N,unconnected-(U5-PC3-Pad21)*%
X175080000Y-103735000D03*
%TO.P,U5,22,PC2*%
%TO.N,unconnected-(U5-PC2-Pad22)*%
X175080000Y-104135000D03*
%TO.P,U5,23,USBDM*%
%TO.N,/USBDM*%
X175080000Y-104535000D03*
D39*
%TO.P,U5,24,USBDP*%
%TO.N,/USBDP*%
X175080000Y-104935000D03*
D40*
%TO.P,U5,25,PA10*%
%TO.N,Net-(J10-Pin_1)*%
X175630000Y-105485000D03*
D36*
%TO.P,U5,26,PA9*%
%TO.N,Net-(J11-Pin_1)*%
X176030000Y-105485000D03*
%TO.P,U5,27,PA1*%
%TO.N,unconnected-(U5-PA1-Pad27)*%
X176430000Y-105485000D03*
%TO.P,U5,28,PA0*%
%TO.N,unconnected-(U5-PA0-Pad28)*%
X176830000Y-105485000D03*
%TO.P,U5,29,PC7*%
%TO.N,/MIC_BIAS*%
X177230000Y-105485000D03*
%TO.P,U5,30,MIC*%
%TO.N,/MIC*%
X177630000Y-105485000D03*
%TO.P,U5,31,VDDIO*%
%TO.N,Net-(U5-VDDIO)*%
X178030000Y-105485000D03*
D41*
%TO.P,U5,32,DACVSS*%
%TO.N,Net-(U5-DACVSS)*%
X178430000Y-105485000D03*
D27*
%TO.P,U5,33,EP*%
%TO.N,GND*%
X177030000Y-103535000D03*
%TD*%
D42*
%TO.P,U3,1,SDO*%
%TO.N,/DI*%
X117132000Y-105246999D03*
%TO.P,U3,2,SDX*%
%TO.N,/DO*%
X116620000Y-105235000D03*
%TO.P,U3,3,VDDIO*%
%TO.N,VDD*%
X116120000Y-105235000D03*
%TO.P,U3,4,NC*%
%TO.N,unconnected-(U3-NC-Pad4)*%
X115608000Y-105246999D03*
%TO.P,U3,5,INT1*%
%TO.N,/INT1*%
X115608000Y-105747000D03*
%TO.P,U3,6,INT2*%
%TO.N,/INT2*%
X115608000Y-106247000D03*
%TO.P,U3,7,VDD*%
%TO.N,VDD*%
X115619999Y-106759000D03*
%TO.P,U3,8,GNDIO*%
%TO.N,GND*%
X116120000Y-106759000D03*
%TO.P,U3,9,GND*%
X116620000Y-106759000D03*
%TO.P,U3,10,CSB*%
%TO.N,/CS*%
X117132000Y-106747001D03*
%TO.P,U3,11,NC*%
%TO.N,unconnected-(U3-NC-Pad11)*%
X117132000Y-106247000D03*
%TO.P,U3,12,SCX*%
%TO.N,/CLK*%
X117132000Y-105747000D03*
%TD*%
D28*
%TO.P,L5,1,1*%
%TO.N,Net-(U5-BT_RF)*%
X169690000Y-101222500D03*
%TO.P,L5,2,2*%
%TO.N,GND*%
X169690000Y-102367500D03*
%TD*%
D43*
%TO.P,BT1,1,+*%
%TO.N,+BATT*%
X112240000Y-104955000D03*
%TO.P,BT1,2,-*%
%TO.N,GND*%
X112240000Y-106225000D03*
%TD*%
D28*
%TO.P,L1,1,1*%
%TO.N,Net-(C4-Pad2)*%
X117310000Y-101032500D03*
%TO.P,L1,2,2*%
%TO.N,Net-(U2-DACR)*%
X117310000Y-102177500D03*
%TD*%
D44*
%TO.P,J4,1,Pin_1*%
%TO.N,Net-(J4-Pin_1)*%
X125520000Y-99405000D03*
%TD*%
D12*
%TO.P,C8,1*%
%TO.N,GND*%
X120590000Y-107705000D03*
%TO.P,C8,2*%
%TO.N,+BATT*%
X120590000Y-106890000D03*
%TD*%
D13*
%TO.P,C27,1*%
%TO.N,GND*%
X178690000Y-99325000D03*
%TO.P,C27,2*%
%TO.N,+BATT*%
X178690000Y-100140000D03*
%TD*%
D12*
%TO.P,R1,1*%
%TO.N,+BATT*%
X127015000Y-99962500D03*
%TO.P,R1,2*%
%TO.N,Net-(J2-Pin_1)*%
X127015000Y-99147500D03*
%TD*%
D44*
%TO.P,LS1,1,1*%
%TO.N,GND*%
X117360000Y-99405000D03*
%TO.P,LS1,2,2*%
%TO.N,Net-(C4-Pad2)*%
X116090000Y-99405000D03*
%TD*%
D13*
%TO.P,R4,1*%
%TO.N,+BATT*%
X170430000Y-106837500D03*
%TO.P,R4,2*%
%TO.N,Net-(J8-Pin_1)*%
X170430000Y-107652500D03*
%TD*%
D45*
%TO.P,U4,1,VIN*%
%TO.N,+BATT*%
X186710200Y-102862950D03*
%TO.P,U4,2,GND*%
%TO.N,GND*%
X187650000Y-102862950D03*
%TO.P,U4,3,EN*%
%TO.N,+BATT*%
X188589800Y-102862950D03*
%TO.P,U4,4,NC*%
%TO.N,unconnected-(U4-NC-Pad4)*%
X188589800Y-100107050D03*
%TO.P,U4,5,VOUT*%
%TO.N,VDD*%
X186710200Y-100107050D03*
%TD*%
D13*
%TO.P,C5,1*%
%TO.N,GND*%
X118730000Y-100860000D03*
%TO.P,C5,2*%
%TO.N,Net-(U2-VCOM0)*%
X118730000Y-101675000D03*
%TD*%
D30*
%TO.P,AE2,1,A*%
%TO.N,Net-(AE2-A)*%
X164040000Y-99140000D03*
D31*
%TO.P,AE2,2,Shield*%
%TO.N,GND*%
X166140000Y-99140000D03*
%TD*%
D29*
%TO.P,L4,1,1*%
%TO.N,Net-(C19-Pad2)*%
X181440000Y-106520000D03*
%TO.P,L4,2,2*%
%TO.N,Net-(U5-DACL)*%
X181440000Y-105375000D03*
%TD*%
D44*
%TO.P,LS2,1,1*%
%TO.N,Net-(C19-Pad2)*%
X182710000Y-107515000D03*
%TO.P,LS2,2,2*%
%TO.N,GND*%
X183980000Y-107515000D03*
%TD*%
D12*
%TO.P,C22,1*%
%TO.N,/VBUS*%
X180710000Y-100140000D03*
%TO.P,C22,2*%
%TO.N,GND*%
X180710000Y-99325000D03*
%TD*%
D11*
%TO.P,C17,1*%
%TO.N,+BATT*%
X186862500Y-104215000D03*
%TO.P,C17,2*%
%TO.N,GND*%
X187677500Y-104215000D03*
%TD*%
D12*
%TO.P,C20,1*%
%TO.N,GND*%
X180280000Y-106565000D03*
%TO.P,C20,2*%
%TO.N,Net-(U5-VCOM0)*%
X180280000Y-105750000D03*
%TD*%
D13*
%TO.P,C3,1*%
%TO.N,/MIC_BIAS*%
X121590000Y-99197500D03*
%TO.P,C3,2*%
%TO.N,/MIC*%
X121590000Y-100012500D03*
%TD*%
D44*
%TO.P,J10,1,Pin_1*%
%TO.N,Net-(J10-Pin_1)*%
X173580000Y-107425000D03*
%TD*%
D14*
%TO.P,C14,1*%
%TO.N,Net-(AE1-A)*%
X130260000Y-105922500D03*
%TO.P,C14,2*%
%TO.N,Net-(U2-BT_RF)*%
X129445000Y-105922500D03*
%TD*%
D42*
%TO.P,U6,1,SDO*%
%TO.N,/DI*%
X182028000Y-101443101D03*
%TO.P,U6,2,SDX*%
%TO.N,/DO*%
X182540000Y-101455100D03*
%TO.P,U6,3,VDDIO*%
%TO.N,VDD*%
X183040000Y-101455100D03*
%TO.P,U6,4,NC*%
%TO.N,unconnected-(U6-NC-Pad4)*%
X183552000Y-101443101D03*
%TO.P,U6,5,INT1*%
%TO.N,/INT1*%
X183552000Y-100943100D03*
%TO.P,U6,6,INT2*%
%TO.N,/INT2*%
X183552000Y-100443100D03*
%TO.P,U6,7,VDD*%
%TO.N,VDD*%
X183540001Y-99931100D03*
%TO.P,U6,8,GNDIO*%
%TO.N,GND*%
X183040000Y-99931100D03*
%TO.P,U6,9,GND*%
X182540000Y-99931100D03*
%TO.P,U6,10,CSB*%
%TO.N,/CS*%
X182028000Y-99943099D03*
%TO.P,U6,11,NC*%
%TO.N,unconnected-(U6-NC-Pad11)*%
X182028000Y-100443100D03*
%TO.P,U6,12,SCX*%
%TO.N,/CLK*%
X182028000Y-100943100D03*
%TD*%
D13*
%TO.P,C9,1*%
%TO.N,GND*%
X120690000Y-99197500D03*
%TO.P,C9,2*%
%TO.N,Net-(U2-VDDIO)*%
X120690000Y-100012500D03*
%TD*%
D12*
%TO.P,C11,1*%
%TO.N,GND*%
X121530000Y-107705000D03*
%TO.P,C11,2*%
%TO.N,Net-(U2-BT_AVDD)*%
X121530000Y-106890000D03*
%TD*%
D14*
%TO.P,C30,1*%
%TO.N,VDD*%
X184197500Y-98833100D03*
%TO.P,C30,2*%
%TO.N,GND*%
X183382500Y-98833100D03*
%TD*%
D44*
%TO.P,J9,1,Pin_1*%
%TO.N,Net-(J11-Pin_1)*%
X175050000Y-107425000D03*
%TD*%
%TO.P,BT2,1,+*%
%TO.N,+BATT*%
X186380000Y-106955000D03*
%TO.P,BT2,2,-*%
%TO.N,GND*%
X187650000Y-106955000D03*
%TD*%
D11*
%TO.P,R5,1*%
%TO.N,GND*%
X173142500Y-99295000D03*
%TO.P,R5,2*%
%TO.N,/VBUS*%
X173957500Y-99295000D03*
%TD*%
D44*
%TO.P,J3,1,Pin_1*%
%TO.N,Net-(J3-Pin_1)*%
X123990000Y-99405000D03*
%TD*%
D13*
%TO.P,C26,1*%
%TO.N,GND*%
X177740000Y-99325000D03*
%TO.P,C26,2*%
%TO.N,Net-(U5-BT_AVDD)*%
X177740000Y-100140000D03*
%TD*%
%TO.P,C7,1*%
%TO.N,/VBUS*%
X118720000Y-106890000D03*
%TO.P,C7,2*%
%TO.N,GND*%
X118720000Y-107705000D03*
%TD*%
D12*
%TO.P,C24,1*%
%TO.N,GND*%
X178250000Y-107862500D03*
%TO.P,C24,2*%
%TO.N,Net-(U5-VDDIO)*%
X178250000Y-107047500D03*
%TD*%
D29*
%TO.P,L2,1,1*%
%TO.N,Net-(U2-BT_RF)*%
X129305000Y-104675000D03*
%TO.P,L2,2,2*%
%TO.N,GND*%
X129305000Y-103530000D03*
%TD*%
D12*
%TO.P,C4,1*%
%TO.N,GND*%
X116330000Y-101797500D03*
%TO.P,C4,2*%
%TO.N,Net-(C4-Pad2)*%
X116330000Y-100982500D03*
%TD*%
D11*
%TO.P,C6,1*%
%TO.N,GND*%
X118855000Y-99845000D03*
%TO.P,C6,2*%
%TO.N,Net-(U2-DACVSS)*%
X119670000Y-99845000D03*
%TD*%
D46*
%TO.N,GND*%
X113010000Y-107240000D03*
X118850000Y-99150000D03*
X170310000Y-99665000D03*
X122870000Y-102480000D03*
X177030000Y-103530000D03*
X126410000Y-107480000D03*
X131970000Y-106810000D03*
X114580000Y-99900000D03*
X172160000Y-103865000D03*
X188550000Y-107360000D03*
X179660000Y-106310000D03*
X123183070Y-99689291D03*
X118080000Y-100850000D03*
X115620000Y-101530000D03*
X188550000Y-106730000D03*
X126610000Y-102760000D03*
X177030000Y-102610000D03*
X180570000Y-108090000D03*
X109240000Y-101950000D03*
X176409707Y-106522552D03*
X117350000Y-99440000D03*
X119870000Y-98920000D03*
X117090000Y-108160000D03*
X121960000Y-104310000D03*
X177950000Y-104460000D03*
X121030000Y-102470000D03*
X128415000Y-103040000D03*
X108450000Y-101070000D03*
X125310000Y-102760000D03*
X121030000Y-103380000D03*
X184790000Y-102650000D03*
X111510000Y-107210000D03*
X168540000Y-103280000D03*
X182570000Y-98840000D03*
X177030000Y-104460000D03*
X112240000Y-107230000D03*
X176100000Y-104460000D03*
X188900000Y-98910000D03*
X187677500Y-105380000D03*
X179730000Y-107862500D03*
X122880000Y-103370000D03*
X188440000Y-103990000D03*
X176100000Y-102620000D03*
X177950000Y-103540000D03*
X125960000Y-102760000D03*
X110512050Y-101105000D03*
X130870000Y-102650000D03*
X183990000Y-107510000D03*
X114860000Y-103220000D03*
X121030000Y-104310000D03*
X121950000Y-103390000D03*
X177950000Y-102610000D03*
X169690000Y-103270000D03*
X187670000Y-99880000D03*
X169090000Y-103270000D03*
X122880000Y-104290000D03*
X121960000Y-102490000D03*
X176100000Y-103540000D03*
X188550000Y-108050000D03*
%TO.N,+BATT*%
X112240000Y-104955000D03*
X179130000Y-100870000D03*
X186746900Y-101950000D03*
X127015000Y-99962500D03*
X170440000Y-105960000D03*
X120220000Y-106260000D03*
%TO.N,Net-(J8-Pin_1)*%
X172160000Y-107675000D03*
%TO.N,Net-(J11-Pin_1)*%
X168140000Y-115470000D03*
%TO.N,Net-(J10-Pin_1)*%
X191380000Y-115440000D03*
%TO.N,/MIC_BIAS*%
X122020018Y-98739000D03*
X176970002Y-107862500D03*
%TO.N,Net-(J2-Pin_1)*%
X128415000Y-99230000D03*
%TO.N,Net-(J3-Pin_1)*%
X107240000Y-115410000D03*
%TO.N,Net-(J4-Pin_1)*%
X130390000Y-115350000D03*
%TO.N,/VBUS*%
X174120000Y-99665000D03*
X117800001Y-107690000D03*
X174664204Y-98680153D03*
X130220000Y-107480000D03*
X122420000Y-108150000D03*
X181310000Y-99460000D03*
%TO.N,/USBDP*%
X128415000Y-100500000D03*
X172160000Y-106405000D03*
X170650000Y-101400000D03*
%TO.N,/USBDM*%
X171105961Y-101010000D03*
X128415000Y-101770000D03*
X172160000Y-105135000D03*
%TO.N,/CS*%
X118400000Y-103485000D03*
X181414607Y-103134607D03*
X180670000Y-101210000D03*
X118700000Y-105510000D03*
%TO.N,/CLK*%
X180500000Y-102635000D03*
X179940000Y-101635000D03*
X118040000Y-105510000D03*
X118260000Y-104510000D03*
%TO.N,/INT2*%
X184371329Y-100354222D03*
X122160000Y-107100000D03*
X178310428Y-98692958D03*
X114681446Y-106218554D03*
%TO.N,/INT1*%
X123127500Y-107302500D03*
X176730000Y-99670000D03*
X184300000Y-100990000D03*
X114690000Y-105520000D03*
%TO.N,/TX*%
X124272500Y-107177500D03*
X175470000Y-99670000D03*
%TD*%
D47*
%TO.N,Net-(AE1-A)*%
X130260000Y-105922500D02*
X130260000Y-104880000D01*
D48*
X130260000Y-105922500D02*
X133120000Y-105922500D01*
X133120000Y-105922500D02*
X134555000Y-104487500D01*
D47*
X130260000Y-104880000D02*
X130465000Y-104675000D01*
D49*
%TO.N,GND*%
X129305000Y-103530000D02*
X128905000Y-103530000D01*
D47*
X180382500Y-106667500D02*
X180280000Y-106565000D01*
X122967893Y-107850000D02*
X126040000Y-107850000D01*
D50*
X109275250Y-101105000D02*
X109242950Y-101072700D01*
D47*
X118855000Y-99155000D02*
X118850000Y-99150000D01*
X177030000Y-103530000D02*
X177030000Y-103535000D01*
D51*
X111510000Y-106955000D02*
X112240000Y-106225000D01*
D47*
X120412500Y-98920000D02*
X120690000Y-99197500D01*
D48*
X180667182Y-99325000D02*
X181152182Y-98840000D01*
D47*
X118730000Y-100860000D02*
X118090000Y-100860000D01*
X177025000Y-103535000D02*
X176100000Y-104460000D01*
D50*
X130465000Y-103055000D02*
X130870000Y-102650000D01*
D49*
X128905000Y-103530000D02*
X128415000Y-103040000D01*
X187677500Y-106927500D02*
X187650000Y-106955000D01*
D48*
X118720000Y-107705000D02*
X121530000Y-107705000D01*
D47*
X121955000Y-103385000D02*
X121030000Y-104310000D01*
D49*
X188145000Y-106955000D02*
X188550000Y-107360000D01*
D47*
X177030000Y-103540000D02*
X177950000Y-104460000D01*
D48*
X173142500Y-99295000D02*
X170680000Y-99295000D01*
D47*
X182540000Y-99675600D02*
X183040000Y-99175600D01*
X131965000Y-106815000D02*
X131970000Y-106810000D01*
D49*
X129305000Y-103530000D02*
X130465000Y-103530000D01*
D47*
X115887500Y-101797500D02*
X115620000Y-101530000D01*
D49*
X188550000Y-108050000D02*
X188550000Y-106730000D01*
X187650000Y-106955000D02*
X188325000Y-106955000D01*
D48*
X117170000Y-108240000D02*
X118185000Y-108240000D01*
D49*
X126615000Y-103505000D02*
X125870000Y-102760000D01*
D47*
X114597500Y-99882500D02*
X114580000Y-99900000D01*
X114912500Y-104035000D02*
X114912500Y-103272500D01*
X108452700Y-101072700D02*
X108450000Y-101070000D01*
D50*
X168357500Y-102367500D02*
X168540000Y-102367500D01*
D47*
X180382500Y-107902500D02*
X180570000Y-108090000D01*
D49*
X126615000Y-102765000D02*
X126610000Y-102760000D01*
D47*
X173450000Y-101835000D02*
X173450000Y-101949314D01*
X169110000Y-102367500D02*
X169110000Y-103250000D01*
X177015000Y-103535000D02*
X176100000Y-102620000D01*
D49*
X130465000Y-103530000D02*
X130740000Y-103530000D01*
D48*
X183382500Y-98833100D02*
X182576900Y-98833100D01*
D47*
X118855000Y-99845000D02*
X118855000Y-99155000D01*
X109242950Y-101947050D02*
X109240000Y-101950000D01*
X119080000Y-98920000D02*
X118850000Y-99150000D01*
D49*
X125870000Y-102760000D02*
X125310000Y-102760000D01*
X188550000Y-108050000D02*
X188550000Y-107855000D01*
D47*
X177945000Y-103535000D02*
X177950000Y-103540000D01*
X119870000Y-98920000D02*
X120412500Y-98920000D01*
X180280000Y-106565000D02*
X179915000Y-106565000D01*
X179730000Y-107862500D02*
X178250000Y-107862500D01*
D49*
X126615000Y-103905000D02*
X126615000Y-102765000D01*
X126610000Y-102760000D02*
X125960000Y-102760000D01*
D47*
X177030000Y-103535000D02*
X177030000Y-103540000D01*
X172400000Y-103185000D02*
X172400000Y-103625000D01*
D50*
X166140000Y-99140000D02*
X166730000Y-99140000D01*
D47*
X117360000Y-99430000D02*
X117350000Y-99440000D01*
D50*
X166730000Y-99140000D02*
X167590000Y-100000000D01*
D47*
X180382500Y-107625000D02*
X180382500Y-106667500D01*
X126615000Y-104105000D02*
X126615000Y-103905000D01*
X180382500Y-107625000D02*
X180145000Y-107862500D01*
X121530000Y-107705000D02*
X121585000Y-107650000D01*
X168540000Y-102367500D02*
X168540000Y-103280000D01*
X177030000Y-103535000D02*
X177015000Y-103535000D01*
X121035000Y-103385000D02*
X121030000Y-103380000D01*
X117800000Y-99845000D02*
X117360000Y-99405000D01*
X118855000Y-99845000D02*
X117800000Y-99845000D01*
X122767893Y-107650000D02*
X122967893Y-107850000D01*
X121945000Y-103385000D02*
X121030000Y-102470000D01*
X180145000Y-107862500D02*
X179730000Y-107862500D01*
X183985000Y-107515000D02*
X183990000Y-107510000D01*
D49*
X130740000Y-103530000D02*
X131310000Y-104100000D01*
X131310000Y-104550000D02*
X131670000Y-104910000D01*
D51*
X112240000Y-107230000D02*
X112240000Y-106225000D01*
D47*
X117360000Y-99405000D02*
X117360000Y-99430000D01*
D50*
X167590000Y-100000000D02*
X167590000Y-101600000D01*
D47*
X116257500Y-107895000D02*
X116257500Y-106896500D01*
X116825000Y-107895000D02*
X117090000Y-108160000D01*
X177030000Y-103535000D02*
X177030000Y-104460000D01*
X131230000Y-106815000D02*
X131965000Y-106815000D01*
X118730000Y-99970000D02*
X118855000Y-99845000D01*
D48*
X184132000Y-102579100D02*
X184719100Y-102579100D01*
D47*
X172400000Y-103625000D02*
X172160000Y-103865000D01*
D48*
X187677500Y-104215000D02*
X188215000Y-104215000D01*
D47*
X122859861Y-100012500D02*
X123183070Y-99689291D01*
D50*
X110512050Y-101105000D02*
X109275250Y-101105000D01*
D51*
X111510000Y-107210000D02*
X111510000Y-106955000D01*
D47*
X169110000Y-103250000D02*
X169090000Y-103270000D01*
D50*
X130465000Y-103530000D02*
X130465000Y-103055000D01*
D47*
X122665000Y-100012500D02*
X122859861Y-100012500D01*
D49*
X187650000Y-106955000D02*
X188145000Y-106955000D01*
D47*
X182540000Y-99931100D02*
X182540000Y-99675600D01*
D49*
X187650000Y-102862950D02*
X187650000Y-104187500D01*
X169110000Y-102367500D02*
X169690000Y-102367500D01*
D47*
X125565000Y-105155000D02*
X126615000Y-104105000D01*
D48*
X181152182Y-98840000D02*
X182570000Y-98840000D01*
X170680000Y-99295000D02*
X170310000Y-99665000D01*
D47*
X177030000Y-103535000D02*
X177945000Y-103535000D01*
D49*
X168540000Y-102367500D02*
X169110000Y-102367500D01*
D47*
X109242950Y-101072700D02*
X108452700Y-101072700D01*
D49*
X131670000Y-104910000D02*
X132032500Y-104910000D01*
D47*
X121955000Y-103385000D02*
X121950000Y-103390000D01*
X126040000Y-107850000D02*
X126410000Y-107480000D01*
D49*
X187677500Y-104215000D02*
X187677500Y-106927500D01*
D47*
X176140000Y-106792259D02*
X176409707Y-106522552D01*
D48*
X184719100Y-102579100D02*
X184790000Y-102650000D01*
D47*
X183980000Y-107515000D02*
X183985000Y-107515000D01*
X176140000Y-107047500D02*
X176140000Y-106792259D01*
X116257500Y-107895000D02*
X116825000Y-107895000D01*
X121960000Y-103385000D02*
X121955000Y-103385000D01*
X116620000Y-106759000D02*
X116120000Y-106759000D01*
X172400000Y-102999314D02*
X172400000Y-103185000D01*
D49*
X188325000Y-106955000D02*
X188550000Y-106730000D01*
D47*
X183382500Y-98833100D02*
X183040000Y-99175600D01*
X177030000Y-103530000D02*
X177950000Y-102610000D01*
X173450000Y-101949314D02*
X172400000Y-102999314D01*
D50*
X167590000Y-101600000D02*
X168357500Y-102367500D01*
D51*
X113010000Y-107240000D02*
X113010000Y-106995000D01*
D47*
X177030000Y-103535000D02*
X176105000Y-103535000D01*
D48*
X187670000Y-99472499D02*
X187670000Y-99880000D01*
D47*
X179120000Y-107862500D02*
X179730000Y-107862500D01*
D48*
X188027500Y-98915000D02*
X188895000Y-98915000D01*
D49*
X188550000Y-107855000D02*
X187650000Y-106955000D01*
D47*
X114597500Y-99105000D02*
X114597500Y-99882500D01*
D51*
X113010000Y-106995000D02*
X112240000Y-106225000D01*
D49*
X126615000Y-103415000D02*
X126615000Y-103905000D01*
X125960000Y-102760000D02*
X126615000Y-103415000D01*
D48*
X182576900Y-98833100D02*
X182570000Y-98840000D01*
D47*
X179915000Y-106565000D02*
X179660000Y-106310000D01*
X183040000Y-99175600D02*
X183040000Y-99931100D01*
D48*
X188215000Y-104215000D02*
X188440000Y-103990000D01*
D47*
X121960000Y-103385000D02*
X121965000Y-103385000D01*
D49*
X125310000Y-102760000D02*
X126610000Y-102760000D01*
D48*
X188027500Y-99114999D02*
X187670000Y-99472499D01*
D47*
X177030000Y-103535000D02*
X177025000Y-103535000D01*
D48*
X188895000Y-98915000D02*
X188900000Y-98910000D01*
D47*
X121960000Y-103385000D02*
X121035000Y-103385000D01*
X121965000Y-103385000D02*
X122870000Y-102480000D01*
X121960000Y-103385000D02*
X121960000Y-104310000D01*
X118090000Y-100860000D02*
X118080000Y-100850000D01*
X121975000Y-103385000D02*
X122880000Y-104290000D01*
X114912500Y-103272500D02*
X114860000Y-103220000D01*
X116330000Y-101797500D02*
X115887500Y-101797500D01*
X169690000Y-102367500D02*
X169690000Y-103270000D01*
X177030000Y-103535000D02*
X177030000Y-102610000D01*
X121960000Y-103385000D02*
X121975000Y-103385000D01*
D48*
X177740000Y-99325000D02*
X180667182Y-99325000D01*
D47*
X109242950Y-101072700D02*
X109242950Y-101947050D01*
D49*
X131310000Y-104100000D02*
X131310000Y-104550000D01*
D47*
X176105000Y-103535000D02*
X176100000Y-103540000D01*
X121960000Y-103385000D02*
X122865000Y-103385000D01*
X125565000Y-105255000D02*
X125565000Y-105155000D01*
D48*
X188027500Y-98915000D02*
X188027500Y-99114999D01*
D47*
X118730000Y-100860000D02*
X118730000Y-99970000D01*
D49*
X132032500Y-104910000D02*
X132455000Y-104487500D01*
D47*
X121960000Y-103385000D02*
X121960000Y-102490000D01*
X119870000Y-98920000D02*
X119080000Y-98920000D01*
D48*
X118185000Y-108240000D02*
X118720000Y-107705000D01*
D47*
X180382500Y-107625000D02*
X180382500Y-107902500D01*
X116257500Y-106896500D02*
X116120000Y-106759000D01*
D49*
X187650000Y-104187500D02*
X187677500Y-104215000D01*
D47*
X121585000Y-107650000D02*
X122767893Y-107650000D01*
D49*
X126615000Y-103905000D02*
X126615000Y-103505000D01*
D48*
X117090000Y-108160000D02*
X117170000Y-108240000D01*
D47*
X121960000Y-103385000D02*
X121945000Y-103385000D01*
X122865000Y-103385000D02*
X122880000Y-103370000D01*
D50*
%TO.N,Net-(AE2-A)*%
X167252500Y-98565000D02*
X164615000Y-98565000D01*
X168732500Y-100045000D02*
X168732500Y-101030000D01*
X164615000Y-98565000D02*
X164040000Y-99140000D01*
X168732500Y-100045000D02*
X167252500Y-98565000D01*
X168732500Y-101030000D02*
X168540000Y-101222500D01*
D48*
%TO.N,+BATT*%
X170440000Y-105960000D02*
X170440000Y-106827500D01*
X120590000Y-106890000D02*
X119690000Y-106890000D01*
D50*
X110419550Y-100257700D02*
X110512050Y-100165200D01*
X111500000Y-101783100D02*
X111500000Y-100510000D01*
D49*
X186710200Y-101986700D02*
X186710200Y-102862950D01*
X188589800Y-101986700D02*
X188553100Y-101950000D01*
D48*
X178690000Y-100140000D02*
X178690000Y-100430000D01*
X170440000Y-106827500D02*
X170430000Y-106837500D01*
X178690000Y-100140000D02*
X179680000Y-100140000D01*
D49*
X186380000Y-104697500D02*
X186380000Y-106955000D01*
D47*
X120330000Y-106150000D02*
X120220000Y-106260000D01*
X120960000Y-106520000D02*
X120960000Y-106150000D01*
X178030000Y-100800000D02*
X178030000Y-101585000D01*
D50*
X111500000Y-100510000D02*
X111155200Y-100165200D01*
D47*
X120960000Y-106150000D02*
X120330000Y-106150000D01*
D49*
X188589800Y-102862950D02*
X188589800Y-101986700D01*
D50*
X111238300Y-102044800D02*
X111500000Y-101783100D01*
D49*
X186862500Y-104215000D02*
X186380000Y-104697500D01*
X112240000Y-103772750D02*
X110512050Y-102044800D01*
D47*
X178690000Y-100140000D02*
X178030000Y-100800000D01*
D48*
X179680000Y-100320000D02*
X179130000Y-100870000D01*
D50*
X109242950Y-100257700D02*
X110419550Y-100257700D01*
D48*
X178690000Y-100430000D02*
X179130000Y-100870000D01*
X179680000Y-100140000D02*
X179680000Y-100320000D01*
D50*
X111155200Y-100165200D02*
X110512050Y-100165200D01*
X110512050Y-102044800D02*
X111238300Y-102044800D01*
D47*
X120960000Y-106150000D02*
X120960000Y-105335000D01*
D49*
X186746900Y-101950000D02*
X186710200Y-101986700D01*
X186862500Y-103015250D02*
X186710200Y-102862950D01*
X188553100Y-101950000D02*
X186746900Y-101950000D01*
X186862500Y-104215000D02*
X186862500Y-103015250D01*
X112240000Y-104955000D02*
X112240000Y-103772750D01*
D47*
X120590000Y-106890000D02*
X120960000Y-106520000D01*
D50*
%TO.N,Net-(C4-Pad2)*%
X116090000Y-99405000D02*
X116090000Y-100742500D01*
X117260000Y-100982500D02*
X117310000Y-101032500D01*
X116330000Y-100982500D02*
X117260000Y-100982500D01*
X116090000Y-100742500D02*
X116330000Y-100982500D01*
D47*
%TO.N,Net-(U2-VDDIO)*%
X120960000Y-101435000D02*
X120960000Y-100282500D01*
X120960000Y-100282500D02*
X120690000Y-100012500D01*
%TO.N,Net-(U2-DACVSS)*%
X120560000Y-101435000D02*
X119670000Y-100545000D01*
X119670000Y-100545000D02*
X119670000Y-99845000D01*
%TO.N,Net-(U2-VCOM0)*%
X119040000Y-101985000D02*
X118730000Y-101675000D01*
X120010000Y-101985000D02*
X119040000Y-101985000D01*
%TO.N,Net-(C19-Pad2)*%
X181197500Y-107625000D02*
X182600000Y-107625000D01*
X181440000Y-107382500D02*
X181197500Y-107625000D01*
X181715000Y-106520000D02*
X182710000Y-107515000D01*
X182600000Y-107625000D02*
X182710000Y-107515000D01*
X181440000Y-106520000D02*
X181440000Y-107382500D01*
X181440000Y-106520000D02*
X181715000Y-106520000D01*
%TO.N,Net-(U5-VCOM0)*%
X178980000Y-104935000D02*
X179465000Y-104935000D01*
X179465000Y-104935000D02*
X180280000Y-105750000D01*
%TO.N,Net-(U5-DACVSS)*%
X179120000Y-106175000D02*
X179120000Y-107047500D01*
X178430000Y-105485000D02*
X179120000Y-106175000D01*
%TO.N,Net-(U5-VDDIO)*%
X178030000Y-106827500D02*
X178030000Y-105485000D01*
X178250000Y-107047500D02*
X178030000Y-106827500D01*
%TO.N,Net-(U2-BT_OSCO)*%
X125085000Y-104385000D02*
X125565000Y-103905000D01*
X123910000Y-104385000D02*
X125085000Y-104385000D01*
%TO.N,Net-(U5-BT_AVDD)*%
X177630000Y-100250000D02*
X177740000Y-100140000D01*
X177630000Y-101585000D02*
X177630000Y-100250000D01*
D50*
%TO.N,Net-(U5-BT_RF)*%
X169547500Y-100045000D02*
X169547500Y-101080000D01*
D47*
X175630000Y-101585000D02*
X175402500Y-101357500D01*
D48*
X169547500Y-100045000D02*
X169755000Y-100045000D01*
X169755000Y-100045000D02*
X170170000Y-100460000D01*
X170170000Y-100460000D02*
X174505000Y-100460000D01*
D50*
X169547500Y-101080000D02*
X169690000Y-101222500D01*
D48*
X174505000Y-100460000D02*
X175162500Y-101117500D01*
D50*
X175162500Y-101117500D02*
X175402500Y-101357500D01*
D47*
%TO.N,Net-(J8-Pin_1)*%
X172137500Y-107652500D02*
X172160000Y-107675000D01*
X170430000Y-107652500D02*
X172137500Y-107652500D01*
%TO.N,Net-(U2-BT_OSCI)*%
X126540000Y-106105000D02*
X126615000Y-106030000D01*
X123910000Y-105100000D02*
X124915000Y-106105000D01*
X124915000Y-106105000D02*
X126540000Y-106105000D01*
X126615000Y-106030000D02*
X126615000Y-105255000D01*
X123910000Y-104785000D02*
X123910000Y-105100000D01*
%TO.N,Net-(J11-Pin_1)*%
X176030000Y-106083000D02*
X176030000Y-105485000D01*
X175050000Y-107425000D02*
X175050000Y-107063000D01*
X175050000Y-107063000D02*
X176030000Y-106083000D01*
%TO.N,Net-(J10-Pin_1)*%
X173580000Y-107210000D02*
X173580000Y-107425000D01*
X175630000Y-105485000D02*
X175305000Y-105485000D01*
X175305000Y-105485000D02*
X173580000Y-107210000D01*
%TO.N,Net-(U5-DACL)*%
X180600000Y-104535000D02*
X181440000Y-105375000D01*
X178980000Y-104535000D02*
X180600000Y-104535000D01*
%TO.N,Net-(U2-BT_AVDD)*%
X121360000Y-105335000D02*
X121360000Y-106720000D01*
X121360000Y-106720000D02*
X121530000Y-106890000D01*
D50*
%TO.N,Net-(U2-BT_RF)*%
X123947500Y-105922500D02*
X123592500Y-105567500D01*
D48*
X123947500Y-105922500D02*
X124580000Y-106555000D01*
X127205000Y-106555000D02*
X127837500Y-105922500D01*
D47*
X123592500Y-105567500D02*
X123360000Y-105335000D01*
X129445000Y-105922500D02*
X129445000Y-104815000D01*
D48*
X124580000Y-106555000D02*
X127205000Y-106555000D01*
D47*
X129445000Y-104815000D02*
X129305000Y-104675000D01*
D48*
X127837500Y-105922500D02*
X129445000Y-105922500D01*
%TO.N,VDD*%
X186710200Y-99417300D02*
X187212500Y-98915000D01*
D47*
X183040000Y-102302100D02*
X183040000Y-101455100D01*
X183317000Y-102579100D02*
X183040000Y-102302100D01*
X114181446Y-105248554D02*
X114890000Y-104540000D01*
X184197500Y-99273601D02*
X184197500Y-98833100D01*
D48*
X184206232Y-103610000D02*
X185040000Y-103610000D01*
D47*
X114890000Y-104540000D02*
X115420000Y-104540000D01*
X115619999Y-106759000D02*
X114514785Y-106759000D01*
D48*
X183317000Y-102720768D02*
X184206232Y-103610000D01*
X187212500Y-98915000D02*
X184279400Y-98915000D01*
X184279400Y-98915000D02*
X184197500Y-98833100D01*
D50*
X113267950Y-100165200D02*
X113267950Y-99619550D01*
D47*
X183540001Y-99931100D02*
X184197500Y-99273601D01*
X115442500Y-106936499D02*
X115619999Y-106759000D01*
D48*
X185040000Y-103610000D02*
X185670000Y-102980000D01*
X185812950Y-100107050D02*
X186710200Y-100107050D01*
D50*
X115727500Y-104035000D02*
X115727500Y-102624750D01*
D48*
X185670000Y-102980000D02*
X185670000Y-100250000D01*
D50*
X113267950Y-99619550D02*
X113782500Y-99105000D01*
D47*
X114181446Y-106425661D02*
X114181446Y-105248554D01*
X116120000Y-104427500D02*
X116120000Y-105235000D01*
D48*
X185670000Y-100250000D02*
X185812950Y-100107050D01*
X186710200Y-100107050D02*
X186710200Y-99417300D01*
D47*
X115442500Y-107895000D02*
X115442500Y-106936499D01*
D48*
X183317000Y-102579100D02*
X183317000Y-102720768D01*
D47*
X115420000Y-104540000D02*
X115727500Y-104232500D01*
D50*
X115727500Y-102624750D02*
X113267950Y-100165200D01*
D47*
X115727500Y-104232500D02*
X115727500Y-104035000D01*
X115727500Y-104035000D02*
X116120000Y-104427500D01*
X114514785Y-106759000D02*
X114181446Y-106425661D01*
%TO.N,/MIC_BIAS*%
X176890000Y-107562499D02*
X177190001Y-107862500D01*
X122665000Y-99197500D02*
X122478518Y-99197500D01*
X121760000Y-101435000D02*
X121760000Y-100803456D01*
X177390000Y-107862500D02*
X176780000Y-107862500D01*
X122478518Y-99197500D02*
X122020018Y-98739000D01*
X122090000Y-100473456D02*
X122090000Y-99600000D01*
X176780000Y-107862500D02*
X176970002Y-107862500D01*
X121760000Y-100803456D02*
X122090000Y-100473456D01*
X122090000Y-99600000D02*
X121687500Y-99197500D01*
X176780000Y-107862500D02*
X176140000Y-107862500D01*
X121687500Y-99197500D02*
X121590000Y-99197500D01*
X122665000Y-99197500D02*
X121590000Y-99197500D01*
X177230000Y-105485000D02*
X177230000Y-106321544D01*
X122492500Y-99197500D02*
X122090000Y-99600000D01*
X122665000Y-99197500D02*
X122492500Y-99197500D01*
X177190001Y-107862500D02*
X177390000Y-107862500D01*
X176890000Y-106661544D02*
X176890000Y-107562499D01*
X121590000Y-99197500D02*
X121590000Y-99169018D01*
X177230000Y-106321544D02*
X176890000Y-106661544D01*
X121590000Y-99169018D02*
X122020018Y-98739000D01*
%TO.N,/MIC*%
X121360000Y-101435000D02*
X121360000Y-100242500D01*
X177390000Y-107047500D02*
X177630000Y-106807500D01*
X177630000Y-106807500D02*
X177630000Y-105485000D01*
X121360000Y-100242500D02*
X121590000Y-100012500D01*
%TO.N,Net-(J2-Pin_1)*%
X127015000Y-99147500D02*
X128332500Y-99147500D01*
X128332500Y-99147500D02*
X128415000Y-99230000D01*
%TO.N,Net-(J3-Pin_1)*%
X123990000Y-99860000D02*
X123990000Y-99405000D01*
X122960000Y-100890000D02*
X123990000Y-99860000D01*
X122960000Y-101435000D02*
X122960000Y-100890000D01*
%TO.N,Net-(J4-Pin_1)*%
X125520000Y-99637000D02*
X125520000Y-99405000D01*
X123722000Y-101435000D02*
X125520000Y-99637000D01*
X123360000Y-101435000D02*
X123722000Y-101435000D01*
%TO.N,/VBUS*%
X117800001Y-107690000D02*
X117800001Y-107610000D01*
X178430000Y-101585000D02*
X179265000Y-101585000D01*
X120560000Y-105335000D02*
X120275000Y-105335000D01*
D50*
X130370000Y-107630000D02*
X130220000Y-107480000D01*
D47*
X174120000Y-99224357D02*
X174664204Y-98680153D01*
X118520001Y-106890000D02*
X118720000Y-106890000D01*
D50*
X131230000Y-107630000D02*
X130370000Y-107630000D01*
D47*
X180710000Y-100140000D02*
X180780956Y-100140000D01*
D48*
X173957500Y-99295000D02*
X173957500Y-99502500D01*
X173957500Y-99502500D02*
X174120000Y-99665000D01*
D47*
X120275000Y-105335000D02*
X118720000Y-106890000D01*
X117800001Y-107610000D02*
X118520001Y-106890000D01*
X122635000Y-108365000D02*
X122420000Y-108150000D01*
X129335000Y-108365000D02*
X122635000Y-108365000D01*
X181310000Y-99610956D02*
X181310000Y-99460000D01*
X179265000Y-101585000D02*
X180710000Y-100140000D01*
X180780956Y-100140000D02*
X181310000Y-99610956D01*
X174120000Y-99665000D02*
X174120000Y-99224357D01*
X130220000Y-107480000D02*
X129335000Y-108365000D01*
%TO.N,/USBDP*%
X128125000Y-100790000D02*
X128415000Y-100500000D01*
X125390000Y-100790000D02*
X128125000Y-100790000D01*
X175080000Y-104935000D02*
X173630000Y-104935000D01*
X123910000Y-101985000D02*
X124195000Y-101985000D01*
X170650000Y-104570000D02*
X170650000Y-101400000D01*
X172160000Y-106080000D02*
X170650000Y-104570000D01*
X124195000Y-101985000D02*
X125390000Y-100790000D01*
X173630000Y-104935000D02*
X172160000Y-106405000D01*
X172160000Y-106405000D02*
X172160000Y-106080000D01*
%TO.N,/USBDM*%
X123910000Y-102385000D02*
X124360686Y-102385000D01*
X124360686Y-102385000D02*
X125415686Y-101330000D01*
X171230000Y-101134039D02*
X171230000Y-104205000D01*
X172760000Y-104535000D02*
X172160000Y-105135000D01*
X175080000Y-104535000D02*
X172760000Y-104535000D01*
X171230000Y-104205000D02*
X172160000Y-105135000D01*
X171105961Y-101010000D02*
X171230000Y-101134039D01*
X127975000Y-101330000D02*
X128415000Y-101770000D01*
X125415686Y-101330000D02*
X127975000Y-101330000D01*
D48*
%TO.N,Net-(U2-DACR)*%
X118245000Y-102785000D02*
X118830000Y-102785000D01*
X117310000Y-102177500D02*
X117637500Y-102177500D01*
D50*
X118830000Y-102785000D02*
X119330000Y-102785000D01*
D48*
X117637500Y-102177500D02*
X118245000Y-102785000D01*
D47*
X120010000Y-102785000D02*
X119330000Y-102785000D01*
%TO.N,/DO*%
X180707107Y-103135000D02*
X180292893Y-103135000D01*
X117514599Y-103985000D02*
X120010000Y-103985000D01*
X182540000Y-101680000D02*
X181685000Y-102535000D01*
X181685000Y-102535000D02*
X181307107Y-102535000D01*
X182540000Y-101455100D02*
X182540000Y-101680000D01*
X116620000Y-104879599D02*
X117514599Y-103985000D01*
X116620000Y-105235000D02*
X116620000Y-104879599D01*
X181307107Y-102535000D02*
X180707107Y-103135000D01*
X180092893Y-102935000D02*
X178980000Y-102935000D01*
X180292893Y-103135000D02*
X180092893Y-102935000D01*
%TO.N,/DI*%
X120010000Y-104785000D02*
X119785000Y-105010000D01*
X119785000Y-105010000D02*
X117368999Y-105010000D01*
X181336101Y-102135000D02*
X182028000Y-101443101D01*
X178980000Y-102135000D02*
X181336101Y-102135000D01*
X117368999Y-105010000D02*
X117132000Y-105246999D01*
%TO.N,Net-(U5-BT_OSCI)*%
X174055000Y-101110000D02*
X175080000Y-102135000D01*
X172400000Y-101835000D02*
X172400000Y-101210000D01*
X172400000Y-101210000D02*
X172500000Y-101110000D01*
X172500000Y-101110000D02*
X174055000Y-101110000D01*
%TO.N,/CS*%
X180127208Y-103535000D02*
X179927208Y-103335000D01*
X181014214Y-103535000D02*
X180127208Y-103535000D01*
X181648601Y-99943099D02*
X181267157Y-100324543D01*
X118500000Y-103585000D02*
X120010000Y-103585000D01*
X181267157Y-100612843D02*
X180670000Y-101210000D01*
X118400000Y-103485000D02*
X118500000Y-103585000D01*
X181414607Y-103134607D02*
X181014214Y-103535000D01*
X179927208Y-103335000D02*
X178980000Y-103335000D01*
X182028000Y-99943099D02*
X181648601Y-99943099D01*
X181267157Y-100324543D02*
X181267157Y-100612843D01*
X117132000Y-106747001D02*
X117510106Y-106747001D01*
X118700000Y-105557107D02*
X118700000Y-105510000D01*
X117510106Y-106747001D02*
X118700000Y-105557107D01*
%TO.N,/CLK*%
X178980000Y-102535000D02*
X180400000Y-102535000D01*
X180965000Y-101735000D02*
X181756900Y-100943100D01*
X181756900Y-100943100D02*
X182028000Y-100943100D01*
X117132000Y-105747000D02*
X117803000Y-105747000D01*
X117803000Y-105747000D02*
X118040000Y-105510000D01*
X179940000Y-101635000D02*
X180040000Y-101735000D01*
X118260000Y-104510000D02*
X118385000Y-104385000D01*
X180040000Y-101735000D02*
X180965000Y-101735000D01*
X180400000Y-102535000D02*
X180500000Y-102635000D01*
X118385000Y-104385000D02*
X120010000Y-104385000D01*
%TO.N,Net-(U5-BT_OSCO)*%
X173450000Y-103185000D02*
X174100000Y-102535000D01*
X174100000Y-102535000D02*
X175080000Y-102535000D01*
%TO.N,/INT2*%
X177486086Y-98692958D02*
X178310428Y-98692958D01*
X177230000Y-101585000D02*
X177230000Y-99180000D01*
X114681446Y-106218554D02*
X115579554Y-106218554D01*
X184371329Y-100354222D02*
X184282451Y-100443100D01*
X177230000Y-98949044D02*
X177486086Y-98692958D01*
X122160000Y-107100000D02*
X122160000Y-106634044D01*
X115579554Y-106218554D02*
X115608000Y-106247000D01*
X121760000Y-106234044D02*
X121760000Y-105335000D01*
X122160000Y-106634044D02*
X121760000Y-106234044D01*
X177230000Y-99180000D02*
X177230000Y-98949044D01*
X184282451Y-100443100D02*
X183552000Y-100443100D01*
%TO.N,/INT1*%
X176830000Y-100910000D02*
X176430000Y-100510000D01*
X122560000Y-105335000D02*
X122560000Y-106430000D01*
X122160000Y-105335000D02*
X122160000Y-106030000D01*
X176830000Y-101585000D02*
X176830000Y-100910000D01*
X176430000Y-100510000D02*
X176430000Y-99980000D01*
X176430000Y-101585000D02*
X176430000Y-100510000D01*
X114917000Y-105747000D02*
X115608000Y-105747000D01*
X122560000Y-106735000D02*
X122560000Y-106430000D01*
X183598900Y-100990000D02*
X183552000Y-100943100D01*
X114690000Y-105520000D02*
X114917000Y-105747000D01*
X122160000Y-106030000D02*
X122560000Y-106430000D01*
X184300000Y-100990000D02*
X183598900Y-100990000D01*
X176430000Y-99980000D02*
X176740000Y-99670000D01*
X123127500Y-107302500D02*
X122560000Y-106735000D01*
%TO.N,/TX*%
X124272500Y-107177500D02*
X122960000Y-105865000D01*
X176030000Y-100980000D02*
X175470000Y-100420000D01*
X175470000Y-100420000D02*
X175470000Y-99670000D01*
X176030000Y-101585000D02*
X176030000Y-100980000D01*
X122960000Y-105865000D02*
X122960000Y-105335000D01*
%TD*%
%TA.AperFunction,Conductor*%
%TO.N,Net-(J11-Pin_1)*%
G36*
X184906909Y-113115185D02*
G01*
X184952664Y-113167989D01*
X184962608Y-113237147D01*
X184933583Y-113300703D01*
X184885922Y-113334631D01*
X173508422Y-117885631D01*
X173462370Y-117894500D01*
X167484500Y-117894500D01*
X167417461Y-117874815D01*
X167371706Y-117822011D01*
X167360500Y-117770500D01*
X167360500Y-113219500D01*
X167380185Y-113152461D01*
X167432989Y-113106706D01*
X167484500Y-113095500D01*
X184839870Y-113095500D01*
X184906909Y-113115185D01*
G37*
%TD.AperFunction*%
%TD*%
%TA.AperFunction,Conductor*%
%TO.N,Net-(J4-Pin_1)*%
G36*
X131162539Y-113045185D02*
G01*
X131208294Y-113097989D01*
X131219500Y-113149500D01*
X131219500Y-117700500D01*
X131199815Y-117767539D01*
X131147011Y-117813294D01*
X131095500Y-117824500D01*
X113790130Y-117824500D01*
X113723091Y-117804815D01*
X113677336Y-117752011D01*
X113667392Y-117682853D01*
X113696417Y-117619297D01*
X113744078Y-117585369D01*
X125121578Y-113034369D01*
X125167630Y-113025500D01*
X131095500Y-113025500D01*
X131162539Y-113045185D01*
G37*
%TD.AperFunction*%
%TD*%
%TA.AperFunction,Conductor*%
%TO.N,Net-(J10-Pin_1)*%
G36*
X192102539Y-113115185D02*
G01*
X192148294Y-113167989D01*
X192159500Y-113219500D01*
X192159500Y-117770500D01*
X192139815Y-117837539D01*
X192087011Y-117883294D01*
X192035500Y-117894500D01*
X174730130Y-117894500D01*
X174663091Y-117874815D01*
X174617336Y-117822011D01*
X174607392Y-117752853D01*
X174636417Y-117689297D01*
X174684078Y-117655369D01*
X186061578Y-113104369D01*
X186107630Y-113095500D01*
X192035500Y-113095500D01*
X192102539Y-113115185D01*
G37*
%TD.AperFunction*%
%TD*%
%TA.AperFunction,Conductor*%
%TO.N,Net-(J3-Pin_1)*%
G36*
X123966909Y-113045185D02*
G01*
X124012664Y-113097989D01*
X124022608Y-113167147D01*
X123993583Y-113230703D01*
X123945922Y-113264631D01*
X112568422Y-117815631D01*
X112522370Y-117824500D01*
X106544500Y-117824500D01*
X106477461Y-117804815D01*
X106431706Y-117752011D01*
X106420500Y-117700500D01*
X106420500Y-113149500D01*
X106440185Y-113082461D01*
X106492989Y-113036706D01*
X106544500Y-113025500D01*
X123899870Y-113025500D01*
X123966909Y-113045185D01*
G37*
%TD.AperFunction*%
%TD*%
M02*
