%TF.GenerationSoftware,KiCad,Pcbnew,8.0.1*%
%TF.CreationDate,2024-08-12T12:56:14+02:00*%
%TF.ProjectId,Test_NH,54657374-5f4e-4482-9e6b-696361645f70,rev?*%
%TF.SameCoordinates,Original*%
%TF.FileFunction,Soldermask,Top*%
%TF.FilePolarity,Negative*%
%FSLAX46Y46*%
G04 Gerber Fmt 4.6, Leading zero omitted, Abs format (unit mm)*
G04 Created by KiCad (PCBNEW 8.0.1) date 2024-08-12 12:56:14*
%MOMM*%
%LPD*%
G01*
G04 APERTURE LIST*
G04 Aperture macros list*
%AMRoundRect*
0 Rectangle with rounded corners*
0 $1 Rounding radius*
0 $2 $3 $4 $5 $6 $7 $8 $9 X,Y pos of 4 corners*
0 Add a 4 corners polygon primitive as box body*
4,1,4,$2,$3,$4,$5,$6,$7,$8,$9,$2,$3,0*
0 Add four circle primitives for the rounded corners*
1,1,$1+$1,$2,$3*
1,1,$1+$1,$4,$5*
1,1,$1+$1,$6,$7*
1,1,$1+$1,$8,$9*
0 Add four rect primitives between the rounded corners*
20,1,$1+$1,$2,$3,$4,$5,0*
20,1,$1+$1,$4,$5,$6,$7,0*
20,1,$1+$1,$6,$7,$8,$9,0*
20,1,$1+$1,$8,$9,$2,$3,0*%
%AMFreePoly0*
4,1,14,0.314644,0.085355,0.385355,0.014644,0.400000,-0.020711,0.400000,-0.050000,0.385355,-0.085355,0.350000,-0.100000,-0.350000,-0.100000,-0.385355,-0.085355,-0.400000,-0.050000,-0.400000,0.050000,-0.385355,0.085355,-0.350000,0.100000,0.279289,0.100000,0.314644,0.085355,0.314644,0.085355,$1*%
%AMFreePoly1*
4,1,14,0.385355,0.085355,0.400000,0.050000,0.400000,0.020711,0.385355,-0.014644,0.314644,-0.085355,0.279289,-0.100000,-0.350000,-0.100000,-0.385355,-0.085355,-0.400000,-0.050000,-0.400000,0.050000,-0.385355,0.085355,-0.350000,0.100000,0.350000,0.100000,0.385355,0.085355,0.385355,0.085355,$1*%
%AMFreePoly2*
4,1,14,0.085355,0.385355,0.100000,0.350000,0.100000,-0.350000,0.085355,-0.385355,0.050000,-0.400000,-0.050000,-0.400000,-0.085355,-0.385355,-0.100000,-0.350000,-0.100000,0.279289,-0.085355,0.314644,-0.014644,0.385355,0.020711,0.400000,0.050000,0.400000,0.085355,0.385355,0.085355,0.385355,$1*%
%AMFreePoly3*
4,1,14,0.014644,0.385355,0.085355,0.314644,0.100000,0.279289,0.100000,-0.350000,0.085355,-0.385355,0.050000,-0.400000,-0.050000,-0.400000,-0.085355,-0.385355,-0.100000,-0.350000,-0.100000,0.350000,-0.085355,0.385355,-0.050000,0.400000,-0.020711,0.400000,0.014644,0.385355,0.014644,0.385355,$1*%
%AMFreePoly4*
4,1,14,0.385355,0.085355,0.400000,0.050000,0.400000,-0.050000,0.385355,-0.085355,0.350000,-0.100000,-0.279289,-0.100000,-0.314644,-0.085355,-0.385355,-0.014644,-0.400000,0.020711,-0.400000,0.050000,-0.385355,0.085355,-0.350000,0.100000,0.350000,0.100000,0.385355,0.085355,0.385355,0.085355,$1*%
%AMFreePoly5*
4,1,14,0.385355,0.085355,0.400000,0.050000,0.400000,-0.050000,0.385355,-0.085355,0.350000,-0.100000,-0.350000,-0.100000,-0.385355,-0.085355,-0.400000,-0.050000,-0.400000,-0.020711,-0.385355,0.014644,-0.314644,0.085355,-0.279289,0.100000,0.350000,0.100000,0.385355,0.085355,0.385355,0.085355,$1*%
%AMFreePoly6*
4,1,14,0.085355,0.385355,0.100000,0.350000,0.100000,-0.279289,0.085355,-0.314644,0.014644,-0.385355,-0.020711,-0.400000,-0.050000,-0.400000,-0.085355,-0.385355,-0.100000,-0.350000,-0.100000,0.350000,-0.085355,0.385355,-0.050000,0.400000,0.050000,0.400000,0.085355,0.385355,0.085355,0.385355,$1*%
%AMFreePoly7*
4,1,14,0.085355,0.385355,0.100000,0.350000,0.100000,-0.350000,0.085355,-0.385355,0.050000,-0.400000,0.020711,-0.400000,-0.014644,-0.385355,-0.085355,-0.314644,-0.100000,-0.279289,-0.100000,0.350000,-0.085355,0.385355,-0.050000,0.400000,0.050000,0.400000,0.085355,0.385355,0.085355,0.385355,$1*%
G04 Aperture macros list end*
%ADD10RoundRect,0.100000X-0.217500X-0.100000X0.217500X-0.100000X0.217500X0.100000X-0.217500X0.100000X0*%
%ADD11RoundRect,0.100000X0.100000X-0.217500X0.100000X0.217500X-0.100000X0.217500X-0.100000X-0.217500X0*%
%ADD12RoundRect,0.100000X-0.100000X0.217500X-0.100000X-0.217500X0.100000X-0.217500X0.100000X0.217500X0*%
%ADD13RoundRect,0.100000X0.217500X0.100000X-0.217500X0.100000X-0.217500X-0.100000X0.217500X-0.100000X0*%
%ADD14R,0.750000X0.850000*%
%ADD15R,0.952500X0.558800*%
%ADD16FreePoly0,0.000000*%
%ADD17RoundRect,0.050000X-0.350000X-0.050000X0.350000X-0.050000X0.350000X0.050000X-0.350000X0.050000X0*%
%ADD18FreePoly1,0.000000*%
%ADD19FreePoly2,0.000000*%
%ADD20RoundRect,0.050000X-0.050000X-0.350000X0.050000X-0.350000X0.050000X0.350000X-0.050000X0.350000X0*%
%ADD21FreePoly3,0.000000*%
%ADD22FreePoly4,0.000000*%
%ADD23FreePoly5,0.000000*%
%ADD24FreePoly6,0.000000*%
%ADD25FreePoly7,0.000000*%
%ADD26R,2.650000X2.650000*%
%ADD27RoundRect,0.160000X-0.160000X0.222500X-0.160000X-0.222500X0.160000X-0.222500X0.160000X0.222500X0*%
%ADD28RoundRect,0.160000X0.160000X-0.222500X0.160000X0.222500X-0.160000X0.222500X-0.160000X-0.222500X0*%
%ADD29FreePoly0,180.000000*%
%ADD30RoundRect,0.050000X0.350000X0.050000X-0.350000X0.050000X-0.350000X-0.050000X0.350000X-0.050000X0*%
%ADD31FreePoly1,180.000000*%
%ADD32FreePoly2,180.000000*%
%ADD33RoundRect,0.050000X0.050000X0.350000X-0.050000X0.350000X-0.050000X-0.350000X0.050000X-0.350000X0*%
%ADD34FreePoly3,180.000000*%
%ADD35FreePoly4,180.000000*%
%ADD36FreePoly5,180.000000*%
%ADD37FreePoly6,180.000000*%
%ADD38FreePoly7,180.000000*%
%ADD39R,0.279400X0.279400*%
%ADD40R,1.524000X0.800000*%
%ADD41R,0.800000X1.524000*%
%ADD42R,0.558800X0.952500*%
G04 APERTURE END LIST*
D10*
%TO.C,C15*%
X115442500Y-107895000D03*
X116257500Y-107895000D03*
%TD*%
D11*
%TO.C,C21*%
X179120000Y-107862500D03*
X179120000Y-107047500D03*
%TD*%
D12*
%TO.C,R2*%
X131230000Y-106815000D03*
X131230000Y-107630000D03*
%TD*%
D13*
%TO.C,C10*%
X115727500Y-104035000D03*
X114912500Y-104035000D03*
%TD*%
D14*
%TO.C,Y1*%
X126615000Y-105255000D03*
X126615000Y-103905000D03*
X125565000Y-103905000D03*
X125565000Y-105255000D03*
%TD*%
D10*
%TO.C,C19*%
X180382500Y-107625000D03*
X181197500Y-107625000D03*
%TD*%
D12*
%TO.C,C16*%
X176140000Y-107047500D03*
X176140000Y-107862500D03*
%TD*%
D15*
%TO.C,U1*%
X110512050Y-100165200D03*
X110512050Y-101105000D03*
X110512050Y-102044800D03*
X113267950Y-102044800D03*
X113267950Y-100165200D03*
%TD*%
D11*
%TO.C,C18*%
X177390000Y-107862500D03*
X177390000Y-107047500D03*
%TD*%
D16*
%TO.C,U2*%
X120010000Y-101985000D03*
D17*
X120010000Y-102385000D03*
X120010000Y-102785000D03*
X120010000Y-103185000D03*
X120010000Y-103585000D03*
X120010000Y-103985000D03*
X120010000Y-104385000D03*
D18*
X120010000Y-104785000D03*
D19*
X120560000Y-105335000D03*
D20*
X120960000Y-105335000D03*
X121360000Y-105335000D03*
X121760000Y-105335000D03*
X122160000Y-105335000D03*
X122560000Y-105335000D03*
X122960000Y-105335000D03*
D21*
X123360000Y-105335000D03*
D22*
X123910000Y-104785000D03*
D17*
X123910000Y-104385000D03*
X123910000Y-103985000D03*
X123910000Y-103585000D03*
X123910000Y-103185000D03*
X123910000Y-102785000D03*
X123910000Y-102385000D03*
D23*
X123910000Y-101985000D03*
D24*
X123360000Y-101435000D03*
D20*
X122960000Y-101435000D03*
X122560000Y-101435000D03*
X122160000Y-101435000D03*
X121760000Y-101435000D03*
X121360000Y-101435000D03*
X120960000Y-101435000D03*
D25*
X120560000Y-101435000D03*
D26*
X121960000Y-103385000D03*
%TD*%
D27*
%TO.C,L3*%
X130465000Y-103530000D03*
X130465000Y-104675000D03*
%TD*%
D12*
%TO.C,C23*%
X179680000Y-99325000D03*
X179680000Y-100140000D03*
%TD*%
D10*
%TO.C,C13*%
X113782500Y-99105000D03*
X114597500Y-99105000D03*
%TD*%
%TO.C,C29*%
X168732500Y-100045000D03*
X169547500Y-100045000D03*
%TD*%
D12*
%TO.C,C2*%
X109242950Y-100257700D03*
X109242950Y-101072700D03*
%TD*%
D14*
%TO.C,Y2*%
X172400000Y-101835000D03*
X172400000Y-103185000D03*
X173450000Y-103185000D03*
X173450000Y-101835000D03*
%TD*%
D11*
%TO.C,C1*%
X122665000Y-100012500D03*
X122665000Y-99197500D03*
%TD*%
D10*
%TO.C,C25*%
X183317000Y-102579100D03*
X184132000Y-102579100D03*
%TD*%
D28*
%TO.C,L6*%
X168540000Y-102367500D03*
X168540000Y-101222500D03*
%TD*%
D11*
%TO.C,C12*%
X119690000Y-107705000D03*
X119690000Y-106890000D03*
%TD*%
D10*
%TO.C,C28*%
X187212500Y-98915000D03*
X188027500Y-98915000D03*
%TD*%
D29*
%TO.C,U5*%
X178980000Y-104935000D03*
D30*
X178980000Y-104535000D03*
X178980000Y-104135000D03*
X178980000Y-103735000D03*
X178980000Y-103335000D03*
X178980000Y-102935000D03*
X178980000Y-102535000D03*
D31*
X178980000Y-102135000D03*
D32*
X178430000Y-101585000D03*
D33*
X178030000Y-101585000D03*
X177630000Y-101585000D03*
X177230000Y-101585000D03*
X176830000Y-101585000D03*
X176430000Y-101585000D03*
X176030000Y-101585000D03*
D34*
X175630000Y-101585000D03*
D35*
X175080000Y-102135000D03*
D30*
X175080000Y-102535000D03*
X175080000Y-102935000D03*
X175080000Y-103335000D03*
X175080000Y-103735000D03*
X175080000Y-104135000D03*
X175080000Y-104535000D03*
D36*
X175080000Y-104935000D03*
D37*
X175630000Y-105485000D03*
D33*
X176030000Y-105485000D03*
X176430000Y-105485000D03*
X176830000Y-105485000D03*
X177230000Y-105485000D03*
X177630000Y-105485000D03*
X178030000Y-105485000D03*
D38*
X178430000Y-105485000D03*
D26*
X177030000Y-103535000D03*
%TD*%
D39*
%TO.C,U3*%
X117132000Y-105246999D03*
X116620000Y-105235000D03*
X116120000Y-105235000D03*
X115608000Y-105246999D03*
X115608000Y-105747000D03*
X115608000Y-106247000D03*
X115619999Y-106759000D03*
X116120000Y-106759000D03*
X116620000Y-106759000D03*
X117132000Y-106747001D03*
X117132000Y-106247000D03*
X117132000Y-105747000D03*
%TD*%
D27*
%TO.C,L5*%
X169690000Y-101222500D03*
X169690000Y-102367500D03*
%TD*%
D40*
%TO.C,BT1*%
X112240000Y-104955000D03*
X112240000Y-106225000D03*
%TD*%
D27*
%TO.C,L1*%
X117310000Y-101032500D03*
X117310000Y-102177500D03*
%TD*%
D41*
%TO.C,J4*%
X125520000Y-99405000D03*
%TD*%
D11*
%TO.C,C8*%
X120590000Y-107705000D03*
X120590000Y-106890000D03*
%TD*%
D12*
%TO.C,C27*%
X178690000Y-99325000D03*
X178690000Y-100140000D03*
%TD*%
D11*
%TO.C,R1*%
X127015000Y-99962500D03*
X127015000Y-99147500D03*
%TD*%
D41*
%TO.C,LS1*%
X117360000Y-99405000D03*
X116090000Y-99405000D03*
%TD*%
D12*
%TO.C,R4*%
X170430000Y-106837500D03*
X170430000Y-107652500D03*
%TD*%
D42*
%TO.C,U4*%
X186710200Y-102862950D03*
X187650000Y-102862950D03*
X188589800Y-102862950D03*
X188589800Y-100107050D03*
X186710200Y-100107050D03*
%TD*%
D12*
%TO.C,C5*%
X118730000Y-100860000D03*
X118730000Y-101675000D03*
%TD*%
D28*
%TO.C,L4*%
X181440000Y-106520000D03*
X181440000Y-105375000D03*
%TD*%
D41*
%TO.C,LS2*%
X182710000Y-107515000D03*
X183980000Y-107515000D03*
%TD*%
D11*
%TO.C,C22*%
X180710000Y-100140000D03*
X180710000Y-99325000D03*
%TD*%
D10*
%TO.C,C17*%
X186862500Y-104215000D03*
X187677500Y-104215000D03*
%TD*%
D11*
%TO.C,C20*%
X180280000Y-106565000D03*
X180280000Y-105750000D03*
%TD*%
D12*
%TO.C,C3*%
X121590000Y-99197500D03*
X121590000Y-100012500D03*
%TD*%
D41*
%TO.C,J10*%
X173580000Y-107425000D03*
%TD*%
D13*
%TO.C,C14*%
X130260000Y-105922500D03*
X129445000Y-105922500D03*
%TD*%
D39*
%TO.C,U6*%
X182028000Y-101443101D03*
X182540000Y-101455100D03*
X183040000Y-101455100D03*
X183552000Y-101443101D03*
X183552000Y-100943100D03*
X183552000Y-100443100D03*
X183540001Y-99931100D03*
X183040000Y-99931100D03*
X182540000Y-99931100D03*
X182028000Y-99943099D03*
X182028000Y-100443100D03*
X182028000Y-100943100D03*
%TD*%
D12*
%TO.C,C9*%
X120690000Y-99197500D03*
X120690000Y-100012500D03*
%TD*%
D11*
%TO.C,C11*%
X121530000Y-107705000D03*
X121530000Y-106890000D03*
%TD*%
D13*
%TO.C,C30*%
X184197500Y-98833100D03*
X183382500Y-98833100D03*
%TD*%
D41*
%TO.C,J9*%
X175050000Y-107425000D03*
%TD*%
%TO.C,BT2*%
X186380000Y-106955000D03*
X187650000Y-106955000D03*
%TD*%
D10*
%TO.C,R5*%
X173142500Y-99295000D03*
X173957500Y-99295000D03*
%TD*%
D41*
%TO.C,J3*%
X123990000Y-99405000D03*
%TD*%
D12*
%TO.C,C26*%
X177740000Y-99325000D03*
X177740000Y-100140000D03*
%TD*%
%TO.C,C7*%
X118720000Y-106890000D03*
X118720000Y-107705000D03*
%TD*%
D11*
%TO.C,C24*%
X178250000Y-107862500D03*
X178250000Y-107047500D03*
%TD*%
D28*
%TO.C,L2*%
X129305000Y-104675000D03*
X129305000Y-103530000D03*
%TD*%
D11*
%TO.C,C4*%
X116330000Y-101797500D03*
X116330000Y-100982500D03*
%TD*%
D10*
%TO.C,C6*%
X118855000Y-99845000D03*
X119670000Y-99845000D03*
%TD*%
M02*
