M48
; DRILL file {KiCad 8.0.1} date 2024-08-12T12:56:12+0200
; FORMAT={-:-/ absolute / metric / decimal}
; #@! TF.CreationDate,2024-08-12T12:56:12+02:00
; #@! TF.GenerationSoftware,Kicad,Pcbnew,8.0.1
; #@! TF.FileFunction,Plated,1,2,PTH
FMAT,2
METRIC
; #@! TA.AperFunction,Plated,PTH,ViaDrill
T1C0.300
; #@! TA.AperFunction,Plated,PTH,ComponentDrill
T2C0.300
%
G90
G05
T1
X107.24Y-115.41
X108.45Y-101.07
X109.24Y-101.95
X110.512Y-101.105
X111.51Y-107.21
X112.24Y-104.955
X112.24Y-107.23
X113.01Y-107.24
X114.58Y-99.9
X114.681Y-106.219
X114.69Y-105.52
X114.86Y-103.22
X115.62Y-101.53
X117.09Y-108.16
X117.35Y-99.44
X117.8Y-107.69
X118.04Y-105.51
X118.08Y-100.85
X118.26Y-104.51
X118.4Y-103.485
X118.7Y-105.51
X118.85Y-99.15
X119.87Y-98.92
X120.22Y-106.26
X121.03Y-102.47
X121.03Y-103.38
X121.03Y-104.31
X121.95Y-103.39
X121.96Y-102.49
X121.96Y-104.31
X122.02Y-98.739
X122.16Y-107.1
X122.42Y-108.15
X122.87Y-102.48
X122.88Y-103.37
X122.88Y-104.29
X123.127Y-107.302
X123.183Y-99.689
X124.272Y-107.177
X125.31Y-102.76
X125.96Y-102.76
X126.41Y-107.48
X126.61Y-102.76
X127.015Y-99.962
X128.415Y-99.23
X128.415Y-100.5
X128.415Y-101.77
X128.415Y-103.04
X130.22Y-107.48
X130.39Y-115.35
X130.87Y-102.65
X131.97Y-106.81
X168.14Y-115.47
X168.54Y-103.28
X169.09Y-103.27
X169.69Y-103.27
X170.31Y-99.665
X170.44Y-105.96
X170.65Y-101.4
X171.106Y-101.01
X172.16Y-103.865
X172.16Y-105.135
X172.16Y-106.405
X172.16Y-107.675
X174.12Y-99.665
X174.664Y-98.68
X175.47Y-99.67
X176.1Y-102.62
X176.1Y-103.54
X176.1Y-104.46
X176.41Y-106.523
X176.73Y-99.67
X176.97Y-107.862
X177.03Y-102.61
X177.03Y-103.53
X177.03Y-104.46
X177.95Y-102.61
X177.95Y-103.54
X177.95Y-104.46
X178.31Y-98.693
X179.13Y-100.87
X179.66Y-106.31
X179.73Y-107.862
X179.94Y-101.635
X180.5Y-102.635
X180.57Y-108.09
X180.67Y-101.21
X181.31Y-99.46
X181.415Y-103.135
X182.57Y-98.84
X183.99Y-107.51
X184.3Y-100.99
X184.371Y-100.354
X184.79Y-102.65
X186.747Y-101.95
X187.67Y-99.88
X187.677Y-105.38
X188.44Y-103.99
X188.55Y-106.73
X188.55Y-107.36
X188.55Y-108.05
X188.9Y-98.91
X191.38Y-115.44
T2
X132.455Y-104.487
X166.14Y-99.14
M30
