%TF.GenerationSoftware,KiCad,Pcbnew,8.0.1*%
%TF.CreationDate,2024-08-12T12:56:14+02:00*%
%TF.ProjectId,Test_NH,54657374-5f4e-4482-9e6b-696361645f70,rev?*%
%TF.SameCoordinates,Original*%
%TF.FileFunction,Legend,Bot*%
%TF.FilePolarity,Positive*%
%FSLAX46Y46*%
G04 Gerber Fmt 4.6, Leading zero omitted, Abs format (unit mm)*
G04 Created by KiCad (PCBNEW 8.0.1) date 2024-08-12 12:56:14*
%MOMM*%
%LPD*%
G01*
G04 APERTURE LIST*
%ADD10C,0.150000*%
%ADD11C,0.200000*%
%ADD12C,0.300000*%
%ADD13C,0.250000*%
G04 APERTURE END LIST*
D10*
X169590000Y-98950000D02*
X169590000Y-100390000D01*
D11*
X122600000Y-106600000D02*
X122600000Y-108370000D01*
X131030000Y-106600000D02*
X131030000Y-108370000D01*
D10*
X174790000Y-98950000D02*
X174790000Y-100390000D01*
D11*
X125540000Y-106600000D02*
X125540000Y-108370000D01*
D10*
X177450000Y-98950000D02*
X177450000Y-100390000D01*
X170860363Y-107519819D02*
X170860363Y-107757914D01*
X171098458Y-107662676D02*
X170860363Y-107757914D01*
X170860363Y-107757914D02*
X170622268Y-107662676D01*
X171003220Y-107948390D02*
X170860363Y-107757914D01*
X170860363Y-107757914D02*
X170717506Y-107948390D01*
X109771792Y-108039819D02*
X110105125Y-107563628D01*
X110343220Y-108039819D02*
X110343220Y-107039819D01*
X110343220Y-107039819D02*
X109962268Y-107039819D01*
X109962268Y-107039819D02*
X109867030Y-107087438D01*
X109867030Y-107087438D02*
X109819411Y-107135057D01*
X109819411Y-107135057D02*
X109771792Y-107230295D01*
X109771792Y-107230295D02*
X109771792Y-107373152D01*
X109771792Y-107373152D02*
X109819411Y-107468390D01*
X109819411Y-107468390D02*
X109867030Y-107516009D01*
X109867030Y-107516009D02*
X109962268Y-107563628D01*
X109962268Y-107563628D02*
X110343220Y-107563628D01*
X109343220Y-108039819D02*
X109343220Y-107373152D01*
X109343220Y-107039819D02*
X109390839Y-107087438D01*
X109390839Y-107087438D02*
X109343220Y-107135057D01*
X109343220Y-107135057D02*
X109295601Y-107087438D01*
X109295601Y-107087438D02*
X109343220Y-107039819D01*
X109343220Y-107039819D02*
X109343220Y-107135057D01*
X108438459Y-107373152D02*
X108438459Y-108182676D01*
X108438459Y-108182676D02*
X108486078Y-108277914D01*
X108486078Y-108277914D02*
X108533697Y-108325533D01*
X108533697Y-108325533D02*
X108628935Y-108373152D01*
X108628935Y-108373152D02*
X108771792Y-108373152D01*
X108771792Y-108373152D02*
X108867030Y-108325533D01*
X108438459Y-107992200D02*
X108533697Y-108039819D01*
X108533697Y-108039819D02*
X108724173Y-108039819D01*
X108724173Y-108039819D02*
X108819411Y-107992200D01*
X108819411Y-107992200D02*
X108867030Y-107944580D01*
X108867030Y-107944580D02*
X108914649Y-107849342D01*
X108914649Y-107849342D02*
X108914649Y-107563628D01*
X108914649Y-107563628D02*
X108867030Y-107468390D01*
X108867030Y-107468390D02*
X108819411Y-107420771D01*
X108819411Y-107420771D02*
X108724173Y-107373152D01*
X108724173Y-107373152D02*
X108533697Y-107373152D01*
X108533697Y-107373152D02*
X108438459Y-107420771D01*
X107962268Y-108039819D02*
X107962268Y-107039819D01*
X107533697Y-108039819D02*
X107533697Y-107516009D01*
X107533697Y-107516009D02*
X107581316Y-107420771D01*
X107581316Y-107420771D02*
X107676554Y-107373152D01*
X107676554Y-107373152D02*
X107819411Y-107373152D01*
X107819411Y-107373152D02*
X107914649Y-107420771D01*
X107914649Y-107420771D02*
X107962268Y-107468390D01*
X107200363Y-107373152D02*
X106819411Y-107373152D01*
X107057506Y-107039819D02*
X107057506Y-107896961D01*
X107057506Y-107896961D02*
X107009887Y-107992200D01*
X107009887Y-107992200D02*
X106914649Y-108039819D01*
X106914649Y-108039819D02*
X106819411Y-108039819D01*
X114167030Y-114839819D02*
X113595601Y-114839819D01*
X114006316Y-115839819D02*
X113881316Y-114839819D01*
X113244411Y-115839819D02*
X113333696Y-115792200D01*
X113333696Y-115792200D02*
X113375363Y-115744580D01*
X113375363Y-115744580D02*
X113411077Y-115649342D01*
X113411077Y-115649342D02*
X113375363Y-115363628D01*
X113375363Y-115363628D02*
X113315839Y-115268390D01*
X113315839Y-115268390D02*
X113262268Y-115220771D01*
X113262268Y-115220771D02*
X113161077Y-115173152D01*
X113161077Y-115173152D02*
X113018220Y-115173152D01*
X113018220Y-115173152D02*
X112928934Y-115220771D01*
X112928934Y-115220771D02*
X112887268Y-115268390D01*
X112887268Y-115268390D02*
X112851553Y-115363628D01*
X112851553Y-115363628D02*
X112887268Y-115649342D01*
X112887268Y-115649342D02*
X112946791Y-115744580D01*
X112946791Y-115744580D02*
X113000363Y-115792200D01*
X113000363Y-115792200D02*
X113101553Y-115839819D01*
X113101553Y-115839819D02*
X113244411Y-115839819D01*
X111970601Y-115173152D02*
X112053934Y-115839819D01*
X112399172Y-115173152D02*
X112464649Y-115696961D01*
X112464649Y-115696961D02*
X112428934Y-115792200D01*
X112428934Y-115792200D02*
X112339649Y-115839819D01*
X112339649Y-115839819D02*
X112196791Y-115839819D01*
X112196791Y-115839819D02*
X112095601Y-115792200D01*
X112095601Y-115792200D02*
X112042029Y-115744580D01*
X111143220Y-115792200D02*
X111244410Y-115839819D01*
X111244410Y-115839819D02*
X111434887Y-115839819D01*
X111434887Y-115839819D02*
X111524172Y-115792200D01*
X111524172Y-115792200D02*
X111565839Y-115744580D01*
X111565839Y-115744580D02*
X111601553Y-115649342D01*
X111601553Y-115649342D02*
X111565839Y-115363628D01*
X111565839Y-115363628D02*
X111506315Y-115268390D01*
X111506315Y-115268390D02*
X111452744Y-115220771D01*
X111452744Y-115220771D02*
X111351553Y-115173152D01*
X111351553Y-115173152D02*
X111161077Y-115173152D01*
X111161077Y-115173152D02*
X111071791Y-115220771D01*
X110720601Y-115839819D02*
X110595601Y-114839819D01*
X110292029Y-115839819D02*
X110226553Y-115316009D01*
X110226553Y-115316009D02*
X110262267Y-115220771D01*
X110262267Y-115220771D02*
X110351553Y-115173152D01*
X110351553Y-115173152D02*
X110494410Y-115173152D01*
X110494410Y-115173152D02*
X110595601Y-115220771D01*
X110595601Y-115220771D02*
X110649172Y-115268390D01*
X110065839Y-115935057D02*
X109303934Y-115935057D01*
X108530124Y-115839819D02*
X109101553Y-115839819D01*
X108815838Y-115839819D02*
X108690838Y-114839819D01*
X108690838Y-114839819D02*
X108803934Y-114982676D01*
X108803934Y-114982676D02*
X108911077Y-115077914D01*
X108911077Y-115077914D02*
X109012267Y-115125533D01*
D12*
X191724417Y-100200828D02*
X191536917Y-98700828D01*
X191536917Y-98700828D02*
X191170846Y-99772257D01*
X191170846Y-99772257D02*
X190536917Y-98700828D01*
X190536917Y-98700828D02*
X190724417Y-100200828D01*
X190072631Y-100129400D02*
X189867274Y-100200828D01*
X189867274Y-100200828D02*
X189510131Y-100200828D01*
X189510131Y-100200828D02*
X189358346Y-100129400D01*
X189358346Y-100129400D02*
X189277988Y-100057971D01*
X189277988Y-100057971D02*
X189188703Y-99915114D01*
X189188703Y-99915114D02*
X189170846Y-99772257D01*
X189170846Y-99772257D02*
X189224417Y-99629400D01*
X189224417Y-99629400D02*
X189286917Y-99557971D01*
X189286917Y-99557971D02*
X189420846Y-99486542D01*
X189420846Y-99486542D02*
X189697631Y-99415114D01*
X189697631Y-99415114D02*
X189831560Y-99343685D01*
X189831560Y-99343685D02*
X189894060Y-99272257D01*
X189894060Y-99272257D02*
X189947631Y-99129400D01*
X189947631Y-99129400D02*
X189929774Y-98986542D01*
X189929774Y-98986542D02*
X189840488Y-98843685D01*
X189840488Y-98843685D02*
X189760131Y-98772257D01*
X189760131Y-98772257D02*
X189608346Y-98700828D01*
X189608346Y-98700828D02*
X189251203Y-98700828D01*
X189251203Y-98700828D02*
X189045846Y-98772257D01*
X187983346Y-99415114D02*
X187777989Y-99486542D01*
X187777989Y-99486542D02*
X187715489Y-99557971D01*
X187715489Y-99557971D02*
X187661917Y-99700828D01*
X187661917Y-99700828D02*
X187688703Y-99915114D01*
X187688703Y-99915114D02*
X187777989Y-100057971D01*
X187777989Y-100057971D02*
X187858346Y-100129400D01*
X187858346Y-100129400D02*
X188010132Y-100200828D01*
X188010132Y-100200828D02*
X188581560Y-100200828D01*
X188581560Y-100200828D02*
X188394060Y-98700828D01*
X188394060Y-98700828D02*
X187894060Y-98700828D01*
X187894060Y-98700828D02*
X187760132Y-98772257D01*
X187760132Y-98772257D02*
X187697632Y-98843685D01*
X187697632Y-98843685D02*
X187644060Y-98986542D01*
X187644060Y-98986542D02*
X187661917Y-99129400D01*
X187661917Y-99129400D02*
X187751203Y-99272257D01*
X187751203Y-99272257D02*
X187831560Y-99343685D01*
X187831560Y-99343685D02*
X187983346Y-99415114D01*
X187983346Y-99415114D02*
X188483346Y-99415114D01*
X186983346Y-99415114D02*
X186483346Y-99415114D01*
X186367275Y-100200828D02*
X187081560Y-100200828D01*
X187081560Y-100200828D02*
X186894060Y-98700828D01*
X186894060Y-98700828D02*
X186179775Y-98700828D01*
X184599417Y-99200828D02*
X184367275Y-100200828D01*
X184367275Y-100200828D02*
X183885132Y-99200828D01*
X183813703Y-100343685D02*
X182670846Y-100343685D01*
X181510132Y-100200828D02*
X182367275Y-100200828D01*
X181938703Y-100200828D02*
X181751203Y-98700828D01*
X181751203Y-98700828D02*
X181920846Y-98915114D01*
X181920846Y-98915114D02*
X182081561Y-99057971D01*
X182081561Y-99057971D02*
X182233346Y-99129400D01*
X180849418Y-100057971D02*
X180786918Y-100129400D01*
X180786918Y-100129400D02*
X180867275Y-100200828D01*
X180867275Y-100200828D02*
X180929775Y-100129400D01*
X180929775Y-100129400D02*
X180849418Y-100057971D01*
X180849418Y-100057971D02*
X180867275Y-100200828D01*
X179679775Y-98700828D02*
X179536918Y-98700828D01*
X179536918Y-98700828D02*
X179402989Y-98772257D01*
X179402989Y-98772257D02*
X179340489Y-98843685D01*
X179340489Y-98843685D02*
X179286918Y-98986542D01*
X179286918Y-98986542D02*
X179251204Y-99272257D01*
X179251204Y-99272257D02*
X179295846Y-99629400D01*
X179295846Y-99629400D02*
X179402989Y-99915114D01*
X179402989Y-99915114D02*
X179492275Y-100057971D01*
X179492275Y-100057971D02*
X179572632Y-100129400D01*
X179572632Y-100129400D02*
X179724418Y-100200828D01*
X179724418Y-100200828D02*
X179867275Y-100200828D01*
X179867275Y-100200828D02*
X180001204Y-100129400D01*
X180001204Y-100129400D02*
X180063704Y-100057971D01*
X180063704Y-100057971D02*
X180117275Y-99915114D01*
X180117275Y-99915114D02*
X180152989Y-99629400D01*
X180152989Y-99629400D02*
X180108346Y-99272257D01*
X180108346Y-99272257D02*
X180001204Y-98986542D01*
X180001204Y-98986542D02*
X179911918Y-98843685D01*
X179911918Y-98843685D02*
X179831561Y-98772257D01*
X179831561Y-98772257D02*
X179679775Y-98700828D01*
D11*
X165920802Y-104927275D02*
X165825564Y-104927275D01*
X165825564Y-104927275D02*
X165736279Y-104974894D01*
X165736279Y-104974894D02*
X165694612Y-105022513D01*
X165694612Y-105022513D02*
X165658898Y-105117751D01*
X165658898Y-105117751D02*
X165635088Y-105308227D01*
X165635088Y-105308227D02*
X165664850Y-105546322D01*
X165664850Y-105546322D02*
X165736279Y-105736798D01*
X165736279Y-105736798D02*
X165795802Y-105832036D01*
X165795802Y-105832036D02*
X165849374Y-105879656D01*
X165849374Y-105879656D02*
X165950564Y-105927275D01*
X165950564Y-105927275D02*
X166045802Y-105927275D01*
X166045802Y-105927275D02*
X166135088Y-105879656D01*
X166135088Y-105879656D02*
X166176755Y-105832036D01*
X166176755Y-105832036D02*
X166212469Y-105736798D01*
X166212469Y-105736798D02*
X166236279Y-105546322D01*
X166236279Y-105546322D02*
X166206517Y-105308227D01*
X166206517Y-105308227D02*
X166135088Y-105117751D01*
X166135088Y-105117751D02*
X166075564Y-105022513D01*
X166075564Y-105022513D02*
X166021993Y-104974894D01*
X166021993Y-104974894D02*
X165920802Y-104927275D01*
X164760088Y-105927275D02*
X165331517Y-105927275D01*
X165045802Y-105927275D02*
X164920802Y-104927275D01*
X164920802Y-104927275D02*
X165033898Y-105070132D01*
X165033898Y-105070132D02*
X165141041Y-105165370D01*
X165141041Y-105165370D02*
X165242231Y-105212989D01*
X164016040Y-104927275D02*
X163920802Y-104927275D01*
X163920802Y-104927275D02*
X163831517Y-104974894D01*
X163831517Y-104974894D02*
X163789850Y-105022513D01*
X163789850Y-105022513D02*
X163754136Y-105117751D01*
X163754136Y-105117751D02*
X163730326Y-105308227D01*
X163730326Y-105308227D02*
X163760088Y-105546322D01*
X163760088Y-105546322D02*
X163831517Y-105736798D01*
X163831517Y-105736798D02*
X163891040Y-105832036D01*
X163891040Y-105832036D02*
X163944612Y-105879656D01*
X163944612Y-105879656D02*
X164045802Y-105927275D01*
X164045802Y-105927275D02*
X164141040Y-105927275D01*
X164141040Y-105927275D02*
X164230326Y-105879656D01*
X164230326Y-105879656D02*
X164271993Y-105832036D01*
X164271993Y-105832036D02*
X164307707Y-105736798D01*
X164307707Y-105736798D02*
X164331517Y-105546322D01*
X164331517Y-105546322D02*
X164301755Y-105308227D01*
X164301755Y-105308227D02*
X164230326Y-105117751D01*
X164230326Y-105117751D02*
X164170802Y-105022513D01*
X164170802Y-105022513D02*
X164117231Y-104974894D01*
X164117231Y-104974894D02*
X164016040Y-104927275D01*
X163063659Y-104927275D02*
X162968421Y-104927275D01*
X162968421Y-104927275D02*
X162879136Y-104974894D01*
X162879136Y-104974894D02*
X162837469Y-105022513D01*
X162837469Y-105022513D02*
X162801755Y-105117751D01*
X162801755Y-105117751D02*
X162777945Y-105308227D01*
X162777945Y-105308227D02*
X162807707Y-105546322D01*
X162807707Y-105546322D02*
X162879136Y-105736798D01*
X162879136Y-105736798D02*
X162938659Y-105832036D01*
X162938659Y-105832036D02*
X162992231Y-105879656D01*
X162992231Y-105879656D02*
X163093421Y-105927275D01*
X163093421Y-105927275D02*
X163188659Y-105927275D01*
X163188659Y-105927275D02*
X163277945Y-105879656D01*
X163277945Y-105879656D02*
X163319612Y-105832036D01*
X163319612Y-105832036D02*
X163355326Y-105736798D01*
X163355326Y-105736798D02*
X163379136Y-105546322D01*
X163379136Y-105546322D02*
X163349374Y-105308227D01*
X163349374Y-105308227D02*
X163277945Y-105117751D01*
X163277945Y-105117751D02*
X163218421Y-105022513D01*
X163218421Y-105022513D02*
X163164850Y-104974894D01*
X163164850Y-104974894D02*
X163063659Y-104927275D01*
X165712469Y-107537219D02*
X166283898Y-107537219D01*
X165998183Y-107537219D02*
X165873183Y-106537219D01*
X165873183Y-106537219D02*
X165986279Y-106680076D01*
X165986279Y-106680076D02*
X166093422Y-106775314D01*
X166093422Y-106775314D02*
X166194612Y-106822933D01*
X164760088Y-107537219D02*
X165331517Y-107537219D01*
X165045802Y-107537219D02*
X164920802Y-106537219D01*
X164920802Y-106537219D02*
X165033898Y-106680076D01*
X165033898Y-106680076D02*
X165141041Y-106775314D01*
X165141041Y-106775314D02*
X165242231Y-106822933D01*
X164016040Y-106537219D02*
X163920802Y-106537219D01*
X163920802Y-106537219D02*
X163831517Y-106584838D01*
X163831517Y-106584838D02*
X163789850Y-106632457D01*
X163789850Y-106632457D02*
X163754136Y-106727695D01*
X163754136Y-106727695D02*
X163730326Y-106918171D01*
X163730326Y-106918171D02*
X163760088Y-107156266D01*
X163760088Y-107156266D02*
X163831517Y-107346742D01*
X163831517Y-107346742D02*
X163891040Y-107441980D01*
X163891040Y-107441980D02*
X163944612Y-107489600D01*
X163944612Y-107489600D02*
X164045802Y-107537219D01*
X164045802Y-107537219D02*
X164141040Y-107537219D01*
X164141040Y-107537219D02*
X164230326Y-107489600D01*
X164230326Y-107489600D02*
X164271993Y-107441980D01*
X164271993Y-107441980D02*
X164307707Y-107346742D01*
X164307707Y-107346742D02*
X164331517Y-107156266D01*
X164331517Y-107156266D02*
X164301755Y-106918171D01*
X164301755Y-106918171D02*
X164230326Y-106727695D01*
X164230326Y-106727695D02*
X164170802Y-106632457D01*
X164170802Y-106632457D02*
X164117231Y-106584838D01*
X164117231Y-106584838D02*
X164016040Y-106537219D01*
X162855326Y-107537219D02*
X163426755Y-107537219D01*
X163141040Y-107537219D02*
X163016040Y-106537219D01*
X163016040Y-106537219D02*
X163129136Y-106680076D01*
X163129136Y-106680076D02*
X163236279Y-106775314D01*
X163236279Y-106775314D02*
X163337469Y-106822933D01*
D13*
X177466003Y-101864619D02*
X177799336Y-101388428D01*
X178037431Y-101864619D02*
X178037431Y-100864619D01*
X178037431Y-100864619D02*
X177656479Y-100864619D01*
X177656479Y-100864619D02*
X177561241Y-100912238D01*
X177561241Y-100912238D02*
X177513622Y-100959857D01*
X177513622Y-100959857D02*
X177466003Y-101055095D01*
X177466003Y-101055095D02*
X177466003Y-101197952D01*
X177466003Y-101197952D02*
X177513622Y-101293190D01*
X177513622Y-101293190D02*
X177561241Y-101340809D01*
X177561241Y-101340809D02*
X177656479Y-101388428D01*
X177656479Y-101388428D02*
X178037431Y-101388428D01*
X177132669Y-100864619D02*
X176466003Y-101864619D01*
X176466003Y-100864619D02*
X177132669Y-101864619D01*
X123066003Y-106104619D02*
X123399336Y-105628428D01*
X123637431Y-106104619D02*
X123637431Y-105104619D01*
X123637431Y-105104619D02*
X123256479Y-105104619D01*
X123256479Y-105104619D02*
X123161241Y-105152238D01*
X123161241Y-105152238D02*
X123113622Y-105199857D01*
X123113622Y-105199857D02*
X123066003Y-105295095D01*
X123066003Y-105295095D02*
X123066003Y-105437952D01*
X123066003Y-105437952D02*
X123113622Y-105533190D01*
X123113622Y-105533190D02*
X123161241Y-105580809D01*
X123161241Y-105580809D02*
X123256479Y-105628428D01*
X123256479Y-105628428D02*
X123637431Y-105628428D01*
X122732669Y-105104619D02*
X122066003Y-106104619D01*
X122066003Y-105104619D02*
X122732669Y-106104619D01*
D10*
X177830363Y-105929819D02*
X177830363Y-106167914D01*
X178068458Y-106072676D02*
X177830363Y-106167914D01*
X177830363Y-106167914D02*
X177592268Y-106072676D01*
X177973220Y-106358390D02*
X177830363Y-106167914D01*
X177830363Y-106167914D02*
X177687506Y-106358390D01*
X175397030Y-115059819D02*
X174825601Y-115059819D01*
X175236316Y-116059819D02*
X175111316Y-115059819D01*
X174474411Y-116059819D02*
X174563696Y-116012200D01*
X174563696Y-116012200D02*
X174605363Y-115964580D01*
X174605363Y-115964580D02*
X174641077Y-115869342D01*
X174641077Y-115869342D02*
X174605363Y-115583628D01*
X174605363Y-115583628D02*
X174545839Y-115488390D01*
X174545839Y-115488390D02*
X174492268Y-115440771D01*
X174492268Y-115440771D02*
X174391077Y-115393152D01*
X174391077Y-115393152D02*
X174248220Y-115393152D01*
X174248220Y-115393152D02*
X174158934Y-115440771D01*
X174158934Y-115440771D02*
X174117268Y-115488390D01*
X174117268Y-115488390D02*
X174081553Y-115583628D01*
X174081553Y-115583628D02*
X174117268Y-115869342D01*
X174117268Y-115869342D02*
X174176791Y-115964580D01*
X174176791Y-115964580D02*
X174230363Y-116012200D01*
X174230363Y-116012200D02*
X174331553Y-116059819D01*
X174331553Y-116059819D02*
X174474411Y-116059819D01*
X173200601Y-115393152D02*
X173283934Y-116059819D01*
X173629172Y-115393152D02*
X173694649Y-115916961D01*
X173694649Y-115916961D02*
X173658934Y-116012200D01*
X173658934Y-116012200D02*
X173569649Y-116059819D01*
X173569649Y-116059819D02*
X173426791Y-116059819D01*
X173426791Y-116059819D02*
X173325601Y-116012200D01*
X173325601Y-116012200D02*
X173272029Y-115964580D01*
X172373220Y-116012200D02*
X172474410Y-116059819D01*
X172474410Y-116059819D02*
X172664887Y-116059819D01*
X172664887Y-116059819D02*
X172754172Y-116012200D01*
X172754172Y-116012200D02*
X172795839Y-115964580D01*
X172795839Y-115964580D02*
X172831553Y-115869342D01*
X172831553Y-115869342D02*
X172795839Y-115583628D01*
X172795839Y-115583628D02*
X172736315Y-115488390D01*
X172736315Y-115488390D02*
X172682744Y-115440771D01*
X172682744Y-115440771D02*
X172581553Y-115393152D01*
X172581553Y-115393152D02*
X172391077Y-115393152D01*
X172391077Y-115393152D02*
X172301791Y-115440771D01*
X171950601Y-116059819D02*
X171825601Y-115059819D01*
X171522029Y-116059819D02*
X171456553Y-115536009D01*
X171456553Y-115536009D02*
X171492267Y-115440771D01*
X171492267Y-115440771D02*
X171581553Y-115393152D01*
X171581553Y-115393152D02*
X171724410Y-115393152D01*
X171724410Y-115393152D02*
X171825601Y-115440771D01*
X171825601Y-115440771D02*
X171879172Y-115488390D01*
X171295839Y-116155057D02*
X170533934Y-116155057D01*
X169760124Y-116059819D02*
X170331553Y-116059819D01*
X170045838Y-116059819D02*
X169920838Y-115059819D01*
X169920838Y-115059819D02*
X170033934Y-115202676D01*
X170033934Y-115202676D02*
X170141077Y-115297914D01*
X170141077Y-115297914D02*
X170242267Y-115345533D01*
D13*
X125960288Y-105124619D02*
X125388860Y-105124619D01*
X125674574Y-106124619D02*
X125674574Y-105124619D01*
X125150764Y-105124619D02*
X124484098Y-106124619D01*
X124484098Y-105124619D02*
X125150764Y-106124619D01*
D10*
X129680363Y-98789819D02*
X129680363Y-99027914D01*
X129918458Y-98932676D02*
X129680363Y-99027914D01*
X129680363Y-99027914D02*
X129442268Y-98932676D01*
X129823220Y-99218390D02*
X129680363Y-99027914D01*
X129680363Y-99027914D02*
X129537506Y-99218390D01*
X130409819Y-99906779D02*
X129409819Y-99906779D01*
X129409819Y-99906779D02*
X129409819Y-100287731D01*
X129409819Y-100287731D02*
X129457438Y-100382969D01*
X129457438Y-100382969D02*
X129505057Y-100430588D01*
X129505057Y-100430588D02*
X129600295Y-100478207D01*
X129600295Y-100478207D02*
X129743152Y-100478207D01*
X129743152Y-100478207D02*
X129838390Y-100430588D01*
X129838390Y-100430588D02*
X129886009Y-100382969D01*
X129886009Y-100382969D02*
X129933628Y-100287731D01*
X129933628Y-100287731D02*
X129933628Y-99906779D01*
X130409819Y-100906779D02*
X129743152Y-100906779D01*
X129933628Y-100906779D02*
X129838390Y-100954398D01*
X129838390Y-100954398D02*
X129790771Y-101002017D01*
X129790771Y-101002017D02*
X129743152Y-101097255D01*
X129743152Y-101097255D02*
X129743152Y-101192493D01*
X130409819Y-101668684D02*
X130362200Y-101573446D01*
X130362200Y-101573446D02*
X130314580Y-101525827D01*
X130314580Y-101525827D02*
X130219342Y-101478208D01*
X130219342Y-101478208D02*
X129933628Y-101478208D01*
X129933628Y-101478208D02*
X129838390Y-101525827D01*
X129838390Y-101525827D02*
X129790771Y-101573446D01*
X129790771Y-101573446D02*
X129743152Y-101668684D01*
X129743152Y-101668684D02*
X129743152Y-101811541D01*
X129743152Y-101811541D02*
X129790771Y-101906779D01*
X129790771Y-101906779D02*
X129838390Y-101954398D01*
X129838390Y-101954398D02*
X129933628Y-102002017D01*
X129933628Y-102002017D02*
X130219342Y-102002017D01*
X130219342Y-102002017D02*
X130314580Y-101954398D01*
X130314580Y-101954398D02*
X130362200Y-101906779D01*
X130362200Y-101906779D02*
X130409819Y-101811541D01*
X130409819Y-101811541D02*
X130409819Y-101668684D01*
X129743152Y-102859160D02*
X130552676Y-102859160D01*
X130552676Y-102859160D02*
X130647914Y-102811541D01*
X130647914Y-102811541D02*
X130695533Y-102763922D01*
X130695533Y-102763922D02*
X130743152Y-102668684D01*
X130743152Y-102668684D02*
X130743152Y-102525827D01*
X130743152Y-102525827D02*
X130695533Y-102430589D01*
X130362200Y-102859160D02*
X130409819Y-102763922D01*
X130409819Y-102763922D02*
X130409819Y-102573446D01*
X130409819Y-102573446D02*
X130362200Y-102478208D01*
X130362200Y-102478208D02*
X130314580Y-102430589D01*
X130314580Y-102430589D02*
X130219342Y-102382970D01*
X130219342Y-102382970D02*
X129933628Y-102382970D01*
X129933628Y-102382970D02*
X129838390Y-102430589D01*
X129838390Y-102430589D02*
X129790771Y-102478208D01*
X129790771Y-102478208D02*
X129743152Y-102573446D01*
X129743152Y-102573446D02*
X129743152Y-102763922D01*
X129743152Y-102763922D02*
X129790771Y-102859160D01*
X129673220Y-105269819D02*
X129673220Y-106079342D01*
X129673220Y-106079342D02*
X129625601Y-106174580D01*
X129625601Y-106174580D02*
X129577982Y-106222200D01*
X129577982Y-106222200D02*
X129482744Y-106269819D01*
X129482744Y-106269819D02*
X129292268Y-106269819D01*
X129292268Y-106269819D02*
X129197030Y-106222200D01*
X129197030Y-106222200D02*
X129149411Y-106174580D01*
X129149411Y-106174580D02*
X129101792Y-106079342D01*
X129101792Y-106079342D02*
X129101792Y-105269819D01*
X128673220Y-106222200D02*
X128530363Y-106269819D01*
X128530363Y-106269819D02*
X128292268Y-106269819D01*
X128292268Y-106269819D02*
X128197030Y-106222200D01*
X128197030Y-106222200D02*
X128149411Y-106174580D01*
X128149411Y-106174580D02*
X128101792Y-106079342D01*
X128101792Y-106079342D02*
X128101792Y-105984104D01*
X128101792Y-105984104D02*
X128149411Y-105888866D01*
X128149411Y-105888866D02*
X128197030Y-105841247D01*
X128197030Y-105841247D02*
X128292268Y-105793628D01*
X128292268Y-105793628D02*
X128482744Y-105746009D01*
X128482744Y-105746009D02*
X128577982Y-105698390D01*
X128577982Y-105698390D02*
X128625601Y-105650771D01*
X128625601Y-105650771D02*
X128673220Y-105555533D01*
X128673220Y-105555533D02*
X128673220Y-105460295D01*
X128673220Y-105460295D02*
X128625601Y-105365057D01*
X128625601Y-105365057D02*
X128577982Y-105317438D01*
X128577982Y-105317438D02*
X128482744Y-105269819D01*
X128482744Y-105269819D02*
X128244649Y-105269819D01*
X128244649Y-105269819D02*
X128101792Y-105317438D01*
X127339887Y-105746009D02*
X127197030Y-105793628D01*
X127197030Y-105793628D02*
X127149411Y-105841247D01*
X127149411Y-105841247D02*
X127101792Y-105936485D01*
X127101792Y-105936485D02*
X127101792Y-106079342D01*
X127101792Y-106079342D02*
X127149411Y-106174580D01*
X127149411Y-106174580D02*
X127197030Y-106222200D01*
X127197030Y-106222200D02*
X127292268Y-106269819D01*
X127292268Y-106269819D02*
X127673220Y-106269819D01*
X127673220Y-106269819D02*
X127673220Y-105269819D01*
X127673220Y-105269819D02*
X127339887Y-105269819D01*
X127339887Y-105269819D02*
X127244649Y-105317438D01*
X127244649Y-105317438D02*
X127197030Y-105365057D01*
X127197030Y-105365057D02*
X127149411Y-105460295D01*
X127149411Y-105460295D02*
X127149411Y-105555533D01*
X127149411Y-105555533D02*
X127197030Y-105650771D01*
X127197030Y-105650771D02*
X127244649Y-105698390D01*
X127244649Y-105698390D02*
X127339887Y-105746009D01*
X127339887Y-105746009D02*
X127673220Y-105746009D01*
X189677030Y-115099819D02*
X189105601Y-115099819D01*
X189516316Y-116099819D02*
X189391316Y-115099819D01*
X188754411Y-116099819D02*
X188843696Y-116052200D01*
X188843696Y-116052200D02*
X188885363Y-116004580D01*
X188885363Y-116004580D02*
X188921077Y-115909342D01*
X188921077Y-115909342D02*
X188885363Y-115623628D01*
X188885363Y-115623628D02*
X188825839Y-115528390D01*
X188825839Y-115528390D02*
X188772268Y-115480771D01*
X188772268Y-115480771D02*
X188671077Y-115433152D01*
X188671077Y-115433152D02*
X188528220Y-115433152D01*
X188528220Y-115433152D02*
X188438934Y-115480771D01*
X188438934Y-115480771D02*
X188397268Y-115528390D01*
X188397268Y-115528390D02*
X188361553Y-115623628D01*
X188361553Y-115623628D02*
X188397268Y-115909342D01*
X188397268Y-115909342D02*
X188456791Y-116004580D01*
X188456791Y-116004580D02*
X188510363Y-116052200D01*
X188510363Y-116052200D02*
X188611553Y-116099819D01*
X188611553Y-116099819D02*
X188754411Y-116099819D01*
X187480601Y-115433152D02*
X187563934Y-116099819D01*
X187909172Y-115433152D02*
X187974649Y-115956961D01*
X187974649Y-115956961D02*
X187938934Y-116052200D01*
X187938934Y-116052200D02*
X187849649Y-116099819D01*
X187849649Y-116099819D02*
X187706791Y-116099819D01*
X187706791Y-116099819D02*
X187605601Y-116052200D01*
X187605601Y-116052200D02*
X187552029Y-116004580D01*
X186653220Y-116052200D02*
X186754410Y-116099819D01*
X186754410Y-116099819D02*
X186944887Y-116099819D01*
X186944887Y-116099819D02*
X187034172Y-116052200D01*
X187034172Y-116052200D02*
X187075839Y-116004580D01*
X187075839Y-116004580D02*
X187111553Y-115909342D01*
X187111553Y-115909342D02*
X187075839Y-115623628D01*
X187075839Y-115623628D02*
X187016315Y-115528390D01*
X187016315Y-115528390D02*
X186962744Y-115480771D01*
X186962744Y-115480771D02*
X186861553Y-115433152D01*
X186861553Y-115433152D02*
X186671077Y-115433152D01*
X186671077Y-115433152D02*
X186581791Y-115480771D01*
X186230601Y-116099819D02*
X186105601Y-115099819D01*
X185802029Y-116099819D02*
X185736553Y-115576009D01*
X185736553Y-115576009D02*
X185772267Y-115480771D01*
X185772267Y-115480771D02*
X185861553Y-115433152D01*
X185861553Y-115433152D02*
X186004410Y-115433152D01*
X186004410Y-115433152D02*
X186105601Y-115480771D01*
X186105601Y-115480771D02*
X186159172Y-115528390D01*
X185575839Y-116195057D02*
X184813934Y-116195057D01*
X184498457Y-115195057D02*
X184444886Y-115147438D01*
X184444886Y-115147438D02*
X184343696Y-115099819D01*
X184343696Y-115099819D02*
X184105600Y-115099819D01*
X184105600Y-115099819D02*
X184016315Y-115147438D01*
X184016315Y-115147438D02*
X183974648Y-115195057D01*
X183974648Y-115195057D02*
X183938934Y-115290295D01*
X183938934Y-115290295D02*
X183950838Y-115385533D01*
X183950838Y-115385533D02*
X184016315Y-115528390D01*
X184016315Y-115528390D02*
X184659172Y-116099819D01*
X184659172Y-116099819D02*
X184040124Y-116099819D01*
D12*
X119544417Y-100745828D02*
X119356917Y-99245828D01*
X119356917Y-99245828D02*
X118990846Y-100317257D01*
X118990846Y-100317257D02*
X118356917Y-99245828D01*
X118356917Y-99245828D02*
X118544417Y-100745828D01*
X117892631Y-100674400D02*
X117687274Y-100745828D01*
X117687274Y-100745828D02*
X117330131Y-100745828D01*
X117330131Y-100745828D02*
X117178346Y-100674400D01*
X117178346Y-100674400D02*
X117097988Y-100602971D01*
X117097988Y-100602971D02*
X117008703Y-100460114D01*
X117008703Y-100460114D02*
X116990846Y-100317257D01*
X116990846Y-100317257D02*
X117044417Y-100174400D01*
X117044417Y-100174400D02*
X117106917Y-100102971D01*
X117106917Y-100102971D02*
X117240846Y-100031542D01*
X117240846Y-100031542D02*
X117517631Y-99960114D01*
X117517631Y-99960114D02*
X117651560Y-99888685D01*
X117651560Y-99888685D02*
X117714060Y-99817257D01*
X117714060Y-99817257D02*
X117767631Y-99674400D01*
X117767631Y-99674400D02*
X117749774Y-99531542D01*
X117749774Y-99531542D02*
X117660488Y-99388685D01*
X117660488Y-99388685D02*
X117580131Y-99317257D01*
X117580131Y-99317257D02*
X117428346Y-99245828D01*
X117428346Y-99245828D02*
X117071203Y-99245828D01*
X117071203Y-99245828D02*
X116865846Y-99317257D01*
X115803346Y-99960114D02*
X115597989Y-100031542D01*
X115597989Y-100031542D02*
X115535489Y-100102971D01*
X115535489Y-100102971D02*
X115481917Y-100245828D01*
X115481917Y-100245828D02*
X115508703Y-100460114D01*
X115508703Y-100460114D02*
X115597989Y-100602971D01*
X115597989Y-100602971D02*
X115678346Y-100674400D01*
X115678346Y-100674400D02*
X115830132Y-100745828D01*
X115830132Y-100745828D02*
X116401560Y-100745828D01*
X116401560Y-100745828D02*
X116214060Y-99245828D01*
X116214060Y-99245828D02*
X115714060Y-99245828D01*
X115714060Y-99245828D02*
X115580132Y-99317257D01*
X115580132Y-99317257D02*
X115517632Y-99388685D01*
X115517632Y-99388685D02*
X115464060Y-99531542D01*
X115464060Y-99531542D02*
X115481917Y-99674400D01*
X115481917Y-99674400D02*
X115571203Y-99817257D01*
X115571203Y-99817257D02*
X115651560Y-99888685D01*
X115651560Y-99888685D02*
X115803346Y-99960114D01*
X115803346Y-99960114D02*
X116303346Y-99960114D01*
X114803346Y-99960114D02*
X114303346Y-99960114D01*
X114187275Y-100745828D02*
X114901560Y-100745828D01*
X114901560Y-100745828D02*
X114714060Y-99245828D01*
X114714060Y-99245828D02*
X113999775Y-99245828D01*
X112419417Y-99745828D02*
X112187275Y-100745828D01*
X112187275Y-100745828D02*
X111705132Y-99745828D01*
X111633703Y-100888685D02*
X110490846Y-100888685D01*
X109330132Y-100745828D02*
X110187275Y-100745828D01*
X109758703Y-100745828D02*
X109571203Y-99245828D01*
X109571203Y-99245828D02*
X109740846Y-99460114D01*
X109740846Y-99460114D02*
X109901561Y-99602971D01*
X109901561Y-99602971D02*
X110053346Y-99674400D01*
X108669418Y-100602971D02*
X108606918Y-100674400D01*
X108606918Y-100674400D02*
X108687275Y-100745828D01*
X108687275Y-100745828D02*
X108749775Y-100674400D01*
X108749775Y-100674400D02*
X108669418Y-100602971D01*
X108669418Y-100602971D02*
X108687275Y-100745828D01*
X107499775Y-99245828D02*
X107356918Y-99245828D01*
X107356918Y-99245828D02*
X107222989Y-99317257D01*
X107222989Y-99317257D02*
X107160489Y-99388685D01*
X107160489Y-99388685D02*
X107106918Y-99531542D01*
X107106918Y-99531542D02*
X107071204Y-99817257D01*
X107071204Y-99817257D02*
X107115846Y-100174400D01*
X107115846Y-100174400D02*
X107222989Y-100460114D01*
X107222989Y-100460114D02*
X107312275Y-100602971D01*
X107312275Y-100602971D02*
X107392632Y-100674400D01*
X107392632Y-100674400D02*
X107544418Y-100745828D01*
X107544418Y-100745828D02*
X107687275Y-100745828D01*
X107687275Y-100745828D02*
X107821204Y-100674400D01*
X107821204Y-100674400D02*
X107883704Y-100602971D01*
X107883704Y-100602971D02*
X107937275Y-100460114D01*
X107937275Y-100460114D02*
X107972989Y-100174400D01*
X107972989Y-100174400D02*
X107928346Y-99817257D01*
X107928346Y-99817257D02*
X107821204Y-99531542D01*
X107821204Y-99531542D02*
X107731918Y-99388685D01*
X107731918Y-99388685D02*
X107651561Y-99317257D01*
X107651561Y-99317257D02*
X107499775Y-99245828D01*
D10*
X178266779Y-107140180D02*
X178266779Y-108140180D01*
X178266779Y-108140180D02*
X178600112Y-107425895D01*
X178600112Y-107425895D02*
X178933445Y-108140180D01*
X178933445Y-108140180D02*
X178933445Y-107140180D01*
X179409636Y-107140180D02*
X179409636Y-107806847D01*
X179409636Y-108140180D02*
X179362017Y-108092561D01*
X179362017Y-108092561D02*
X179409636Y-108044942D01*
X179409636Y-108044942D02*
X179457255Y-108092561D01*
X179457255Y-108092561D02*
X179409636Y-108140180D01*
X179409636Y-108140180D02*
X179409636Y-108044942D01*
X180314397Y-107187800D02*
X180219159Y-107140180D01*
X180219159Y-107140180D02*
X180028683Y-107140180D01*
X180028683Y-107140180D02*
X179933445Y-107187800D01*
X179933445Y-107187800D02*
X179885826Y-107235419D01*
X179885826Y-107235419D02*
X179838207Y-107330657D01*
X179838207Y-107330657D02*
X179838207Y-107616371D01*
X179838207Y-107616371D02*
X179885826Y-107711609D01*
X179885826Y-107711609D02*
X179933445Y-107759228D01*
X179933445Y-107759228D02*
X180028683Y-107806847D01*
X180028683Y-107806847D02*
X180219159Y-107806847D01*
X180219159Y-107806847D02*
X180314397Y-107759228D01*
X131560363Y-107869819D02*
X131560363Y-108107914D01*
X131798458Y-108012676D02*
X131560363Y-108107914D01*
X131560363Y-108107914D02*
X131322268Y-108012676D01*
X131703220Y-108298390D02*
X131560363Y-108107914D01*
X131560363Y-108107914D02*
X131417506Y-108298390D01*
X170776779Y-101880180D02*
X170776779Y-101070657D01*
X170776779Y-101070657D02*
X170824398Y-100975419D01*
X170824398Y-100975419D02*
X170872017Y-100927800D01*
X170872017Y-100927800D02*
X170967255Y-100880180D01*
X170967255Y-100880180D02*
X171157731Y-100880180D01*
X171157731Y-100880180D02*
X171252969Y-100927800D01*
X171252969Y-100927800D02*
X171300588Y-100975419D01*
X171300588Y-100975419D02*
X171348207Y-101070657D01*
X171348207Y-101070657D02*
X171348207Y-101880180D01*
X171776779Y-100927800D02*
X171919636Y-100880180D01*
X171919636Y-100880180D02*
X172157731Y-100880180D01*
X172157731Y-100880180D02*
X172252969Y-100927800D01*
X172252969Y-100927800D02*
X172300588Y-100975419D01*
X172300588Y-100975419D02*
X172348207Y-101070657D01*
X172348207Y-101070657D02*
X172348207Y-101165895D01*
X172348207Y-101165895D02*
X172300588Y-101261133D01*
X172300588Y-101261133D02*
X172252969Y-101308752D01*
X172252969Y-101308752D02*
X172157731Y-101356371D01*
X172157731Y-101356371D02*
X171967255Y-101403990D01*
X171967255Y-101403990D02*
X171872017Y-101451609D01*
X171872017Y-101451609D02*
X171824398Y-101499228D01*
X171824398Y-101499228D02*
X171776779Y-101594466D01*
X171776779Y-101594466D02*
X171776779Y-101689704D01*
X171776779Y-101689704D02*
X171824398Y-101784942D01*
X171824398Y-101784942D02*
X171872017Y-101832561D01*
X171872017Y-101832561D02*
X171967255Y-101880180D01*
X171967255Y-101880180D02*
X172205350Y-101880180D01*
X172205350Y-101880180D02*
X172348207Y-101832561D01*
X173110112Y-101403990D02*
X173252969Y-101356371D01*
X173252969Y-101356371D02*
X173300588Y-101308752D01*
X173300588Y-101308752D02*
X173348207Y-101213514D01*
X173348207Y-101213514D02*
X173348207Y-101070657D01*
X173348207Y-101070657D02*
X173300588Y-100975419D01*
X173300588Y-100975419D02*
X173252969Y-100927800D01*
X173252969Y-100927800D02*
X173157731Y-100880180D01*
X173157731Y-100880180D02*
X172776779Y-100880180D01*
X172776779Y-100880180D02*
X172776779Y-101880180D01*
X172776779Y-101880180D02*
X173110112Y-101880180D01*
X173110112Y-101880180D02*
X173205350Y-101832561D01*
X173205350Y-101832561D02*
X173252969Y-101784942D01*
X173252969Y-101784942D02*
X173300588Y-101689704D01*
X173300588Y-101689704D02*
X173300588Y-101594466D01*
X173300588Y-101594466D02*
X173252969Y-101499228D01*
X173252969Y-101499228D02*
X173205350Y-101451609D01*
X173205350Y-101451609D02*
X173110112Y-101403990D01*
X173110112Y-101403990D02*
X172776779Y-101403990D01*
X121100363Y-100369819D02*
X121100363Y-100607914D01*
X121338458Y-100512676D02*
X121100363Y-100607914D01*
X121100363Y-100607914D02*
X120862268Y-100512676D01*
X121243220Y-100798390D02*
X121100363Y-100607914D01*
X121100363Y-100607914D02*
X120957506Y-100798390D01*
D11*
X134820802Y-105037275D02*
X134725564Y-105037275D01*
X134725564Y-105037275D02*
X134636279Y-105084894D01*
X134636279Y-105084894D02*
X134594612Y-105132513D01*
X134594612Y-105132513D02*
X134558898Y-105227751D01*
X134558898Y-105227751D02*
X134535088Y-105418227D01*
X134535088Y-105418227D02*
X134564850Y-105656322D01*
X134564850Y-105656322D02*
X134636279Y-105846798D01*
X134636279Y-105846798D02*
X134695802Y-105942036D01*
X134695802Y-105942036D02*
X134749374Y-105989656D01*
X134749374Y-105989656D02*
X134850564Y-106037275D01*
X134850564Y-106037275D02*
X134945802Y-106037275D01*
X134945802Y-106037275D02*
X135035088Y-105989656D01*
X135035088Y-105989656D02*
X135076755Y-105942036D01*
X135076755Y-105942036D02*
X135112469Y-105846798D01*
X135112469Y-105846798D02*
X135136279Y-105656322D01*
X135136279Y-105656322D02*
X135106517Y-105418227D01*
X135106517Y-105418227D02*
X135035088Y-105227751D01*
X135035088Y-105227751D02*
X134975564Y-105132513D01*
X134975564Y-105132513D02*
X134921993Y-105084894D01*
X134921993Y-105084894D02*
X134820802Y-105037275D01*
X133660088Y-106037275D02*
X134231517Y-106037275D01*
X133945802Y-106037275D02*
X133820802Y-105037275D01*
X133820802Y-105037275D02*
X133933898Y-105180132D01*
X133933898Y-105180132D02*
X134041041Y-105275370D01*
X134041041Y-105275370D02*
X134142231Y-105322989D01*
X132916040Y-105037275D02*
X132820802Y-105037275D01*
X132820802Y-105037275D02*
X132731517Y-105084894D01*
X132731517Y-105084894D02*
X132689850Y-105132513D01*
X132689850Y-105132513D02*
X132654136Y-105227751D01*
X132654136Y-105227751D02*
X132630326Y-105418227D01*
X132630326Y-105418227D02*
X132660088Y-105656322D01*
X132660088Y-105656322D02*
X132731517Y-105846798D01*
X132731517Y-105846798D02*
X132791040Y-105942036D01*
X132791040Y-105942036D02*
X132844612Y-105989656D01*
X132844612Y-105989656D02*
X132945802Y-106037275D01*
X132945802Y-106037275D02*
X133041040Y-106037275D01*
X133041040Y-106037275D02*
X133130326Y-105989656D01*
X133130326Y-105989656D02*
X133171993Y-105942036D01*
X133171993Y-105942036D02*
X133207707Y-105846798D01*
X133207707Y-105846798D02*
X133231517Y-105656322D01*
X133231517Y-105656322D02*
X133201755Y-105418227D01*
X133201755Y-105418227D02*
X133130326Y-105227751D01*
X133130326Y-105227751D02*
X133070802Y-105132513D01*
X133070802Y-105132513D02*
X133017231Y-105084894D01*
X133017231Y-105084894D02*
X132916040Y-105037275D01*
X131963659Y-105037275D02*
X131868421Y-105037275D01*
X131868421Y-105037275D02*
X131779136Y-105084894D01*
X131779136Y-105084894D02*
X131737469Y-105132513D01*
X131737469Y-105132513D02*
X131701755Y-105227751D01*
X131701755Y-105227751D02*
X131677945Y-105418227D01*
X131677945Y-105418227D02*
X131707707Y-105656322D01*
X131707707Y-105656322D02*
X131779136Y-105846798D01*
X131779136Y-105846798D02*
X131838659Y-105942036D01*
X131838659Y-105942036D02*
X131892231Y-105989656D01*
X131892231Y-105989656D02*
X131993421Y-106037275D01*
X131993421Y-106037275D02*
X132088659Y-106037275D01*
X132088659Y-106037275D02*
X132177945Y-105989656D01*
X132177945Y-105989656D02*
X132219612Y-105942036D01*
X132219612Y-105942036D02*
X132255326Y-105846798D01*
X132255326Y-105846798D02*
X132279136Y-105656322D01*
X132279136Y-105656322D02*
X132249374Y-105418227D01*
X132249374Y-105418227D02*
X132177945Y-105227751D01*
X132177945Y-105227751D02*
X132118421Y-105132513D01*
X132118421Y-105132513D02*
X132064850Y-105084894D01*
X132064850Y-105084894D02*
X131963659Y-105037275D01*
X134612469Y-107647219D02*
X135183898Y-107647219D01*
X134898183Y-107647219D02*
X134773183Y-106647219D01*
X134773183Y-106647219D02*
X134886279Y-106790076D01*
X134886279Y-106790076D02*
X134993422Y-106885314D01*
X134993422Y-106885314D02*
X135094612Y-106932933D01*
X133660088Y-107647219D02*
X134231517Y-107647219D01*
X133945802Y-107647219D02*
X133820802Y-106647219D01*
X133820802Y-106647219D02*
X133933898Y-106790076D01*
X133933898Y-106790076D02*
X134041041Y-106885314D01*
X134041041Y-106885314D02*
X134142231Y-106932933D01*
X132916040Y-106647219D02*
X132820802Y-106647219D01*
X132820802Y-106647219D02*
X132731517Y-106694838D01*
X132731517Y-106694838D02*
X132689850Y-106742457D01*
X132689850Y-106742457D02*
X132654136Y-106837695D01*
X132654136Y-106837695D02*
X132630326Y-107028171D01*
X132630326Y-107028171D02*
X132660088Y-107266266D01*
X132660088Y-107266266D02*
X132731517Y-107456742D01*
X132731517Y-107456742D02*
X132791040Y-107551980D01*
X132791040Y-107551980D02*
X132844612Y-107599600D01*
X132844612Y-107599600D02*
X132945802Y-107647219D01*
X132945802Y-107647219D02*
X133041040Y-107647219D01*
X133041040Y-107647219D02*
X133130326Y-107599600D01*
X133130326Y-107599600D02*
X133171993Y-107551980D01*
X133171993Y-107551980D02*
X133207707Y-107456742D01*
X133207707Y-107456742D02*
X133231517Y-107266266D01*
X133231517Y-107266266D02*
X133201755Y-107028171D01*
X133201755Y-107028171D02*
X133130326Y-106837695D01*
X133130326Y-106837695D02*
X133070802Y-106742457D01*
X133070802Y-106742457D02*
X133017231Y-106694838D01*
X133017231Y-106694838D02*
X132916040Y-106647219D01*
X131755326Y-107647219D02*
X132326755Y-107647219D01*
X132041040Y-107647219D02*
X131916040Y-106647219D01*
X131916040Y-106647219D02*
X132029136Y-106790076D01*
X132029136Y-106790076D02*
X132136279Y-106885314D01*
X132136279Y-106885314D02*
X132237469Y-106932933D01*
D13*
X175660288Y-100934619D02*
X175088860Y-100934619D01*
X175374574Y-101934619D02*
X175374574Y-100934619D01*
X174850764Y-100934619D02*
X174184098Y-101934619D01*
X174184098Y-100934619D02*
X174850764Y-101934619D01*
D10*
X128667030Y-114859819D02*
X128095601Y-114859819D01*
X128506316Y-115859819D02*
X128381316Y-114859819D01*
X127744411Y-115859819D02*
X127833696Y-115812200D01*
X127833696Y-115812200D02*
X127875363Y-115764580D01*
X127875363Y-115764580D02*
X127911077Y-115669342D01*
X127911077Y-115669342D02*
X127875363Y-115383628D01*
X127875363Y-115383628D02*
X127815839Y-115288390D01*
X127815839Y-115288390D02*
X127762268Y-115240771D01*
X127762268Y-115240771D02*
X127661077Y-115193152D01*
X127661077Y-115193152D02*
X127518220Y-115193152D01*
X127518220Y-115193152D02*
X127428934Y-115240771D01*
X127428934Y-115240771D02*
X127387268Y-115288390D01*
X127387268Y-115288390D02*
X127351553Y-115383628D01*
X127351553Y-115383628D02*
X127387268Y-115669342D01*
X127387268Y-115669342D02*
X127446791Y-115764580D01*
X127446791Y-115764580D02*
X127500363Y-115812200D01*
X127500363Y-115812200D02*
X127601553Y-115859819D01*
X127601553Y-115859819D02*
X127744411Y-115859819D01*
X126470601Y-115193152D02*
X126553934Y-115859819D01*
X126899172Y-115193152D02*
X126964649Y-115716961D01*
X126964649Y-115716961D02*
X126928934Y-115812200D01*
X126928934Y-115812200D02*
X126839649Y-115859819D01*
X126839649Y-115859819D02*
X126696791Y-115859819D01*
X126696791Y-115859819D02*
X126595601Y-115812200D01*
X126595601Y-115812200D02*
X126542029Y-115764580D01*
X125643220Y-115812200D02*
X125744410Y-115859819D01*
X125744410Y-115859819D02*
X125934887Y-115859819D01*
X125934887Y-115859819D02*
X126024172Y-115812200D01*
X126024172Y-115812200D02*
X126065839Y-115764580D01*
X126065839Y-115764580D02*
X126101553Y-115669342D01*
X126101553Y-115669342D02*
X126065839Y-115383628D01*
X126065839Y-115383628D02*
X126006315Y-115288390D01*
X126006315Y-115288390D02*
X125952744Y-115240771D01*
X125952744Y-115240771D02*
X125851553Y-115193152D01*
X125851553Y-115193152D02*
X125661077Y-115193152D01*
X125661077Y-115193152D02*
X125571791Y-115240771D01*
X125220601Y-115859819D02*
X125095601Y-114859819D01*
X124792029Y-115859819D02*
X124726553Y-115336009D01*
X124726553Y-115336009D02*
X124762267Y-115240771D01*
X124762267Y-115240771D02*
X124851553Y-115193152D01*
X124851553Y-115193152D02*
X124994410Y-115193152D01*
X124994410Y-115193152D02*
X125095601Y-115240771D01*
X125095601Y-115240771D02*
X125149172Y-115288390D01*
X124565839Y-115955057D02*
X123803934Y-115955057D01*
X123488457Y-114955057D02*
X123434886Y-114907438D01*
X123434886Y-114907438D02*
X123333696Y-114859819D01*
X123333696Y-114859819D02*
X123095600Y-114859819D01*
X123095600Y-114859819D02*
X123006315Y-114907438D01*
X123006315Y-114907438D02*
X122964648Y-114955057D01*
X122964648Y-114955057D02*
X122928934Y-115050295D01*
X122928934Y-115050295D02*
X122940838Y-115145533D01*
X122940838Y-115145533D02*
X123006315Y-115288390D01*
X123006315Y-115288390D02*
X123649172Y-115859819D01*
X123649172Y-115859819D02*
X123030124Y-115859819D01*
X191497030Y-108229819D02*
X191973220Y-108229819D01*
X191973220Y-108229819D02*
X191973220Y-107229819D01*
X190782744Y-108182200D02*
X190877982Y-108229819D01*
X190877982Y-108229819D02*
X191068458Y-108229819D01*
X191068458Y-108229819D02*
X191163696Y-108182200D01*
X191163696Y-108182200D02*
X191211315Y-108086961D01*
X191211315Y-108086961D02*
X191211315Y-107706009D01*
X191211315Y-107706009D02*
X191163696Y-107610771D01*
X191163696Y-107610771D02*
X191068458Y-107563152D01*
X191068458Y-107563152D02*
X190877982Y-107563152D01*
X190877982Y-107563152D02*
X190782744Y-107610771D01*
X190782744Y-107610771D02*
X190735125Y-107706009D01*
X190735125Y-107706009D02*
X190735125Y-107801247D01*
X190735125Y-107801247D02*
X191211315Y-107896485D01*
X190449410Y-107563152D02*
X190068458Y-107563152D01*
X190306553Y-108229819D02*
X190306553Y-107372676D01*
X190306553Y-107372676D02*
X190258934Y-107277438D01*
X190258934Y-107277438D02*
X190163696Y-107229819D01*
X190163696Y-107229819D02*
X190068458Y-107229819D01*
X189877981Y-107563152D02*
X189497029Y-107563152D01*
X189735124Y-107229819D02*
X189735124Y-108086961D01*
X189735124Y-108086961D02*
X189687505Y-108182200D01*
X189687505Y-108182200D02*
X189592267Y-108229819D01*
X189592267Y-108229819D02*
X189497029Y-108229819D01*
X125473220Y-99609819D02*
X125473220Y-98609819D01*
X125473220Y-98609819D02*
X125139887Y-99324104D01*
X125139887Y-99324104D02*
X124806554Y-98609819D01*
X124806554Y-98609819D02*
X124806554Y-99609819D01*
X124330363Y-99609819D02*
X124330363Y-98943152D01*
X124330363Y-98609819D02*
X124377982Y-98657438D01*
X124377982Y-98657438D02*
X124330363Y-98705057D01*
X124330363Y-98705057D02*
X124282744Y-98657438D01*
X124282744Y-98657438D02*
X124330363Y-98609819D01*
X124330363Y-98609819D02*
X124330363Y-98705057D01*
X123425602Y-99562200D02*
X123520840Y-99609819D01*
X123520840Y-99609819D02*
X123711316Y-99609819D01*
X123711316Y-99609819D02*
X123806554Y-99562200D01*
X123806554Y-99562200D02*
X123854173Y-99514580D01*
X123854173Y-99514580D02*
X123901792Y-99419342D01*
X123901792Y-99419342D02*
X123901792Y-99133628D01*
X123901792Y-99133628D02*
X123854173Y-99038390D01*
X123854173Y-99038390D02*
X123806554Y-98990771D01*
X123806554Y-98990771D02*
X123711316Y-98943152D01*
X123711316Y-98943152D02*
X123520840Y-98943152D01*
X123520840Y-98943152D02*
X123425602Y-98990771D01*
X170759819Y-104136779D02*
X169759819Y-104136779D01*
X169759819Y-104136779D02*
X169759819Y-104517731D01*
X169759819Y-104517731D02*
X169807438Y-104612969D01*
X169807438Y-104612969D02*
X169855057Y-104660588D01*
X169855057Y-104660588D02*
X169950295Y-104708207D01*
X169950295Y-104708207D02*
X170093152Y-104708207D01*
X170093152Y-104708207D02*
X170188390Y-104660588D01*
X170188390Y-104660588D02*
X170236009Y-104612969D01*
X170236009Y-104612969D02*
X170283628Y-104517731D01*
X170283628Y-104517731D02*
X170283628Y-104136779D01*
X170759819Y-105136779D02*
X170093152Y-105136779D01*
X170283628Y-105136779D02*
X170188390Y-105184398D01*
X170188390Y-105184398D02*
X170140771Y-105232017D01*
X170140771Y-105232017D02*
X170093152Y-105327255D01*
X170093152Y-105327255D02*
X170093152Y-105422493D01*
X170759819Y-105898684D02*
X170712200Y-105803446D01*
X170712200Y-105803446D02*
X170664580Y-105755827D01*
X170664580Y-105755827D02*
X170569342Y-105708208D01*
X170569342Y-105708208D02*
X170283628Y-105708208D01*
X170283628Y-105708208D02*
X170188390Y-105755827D01*
X170188390Y-105755827D02*
X170140771Y-105803446D01*
X170140771Y-105803446D02*
X170093152Y-105898684D01*
X170093152Y-105898684D02*
X170093152Y-106041541D01*
X170093152Y-106041541D02*
X170140771Y-106136779D01*
X170140771Y-106136779D02*
X170188390Y-106184398D01*
X170188390Y-106184398D02*
X170283628Y-106232017D01*
X170283628Y-106232017D02*
X170569342Y-106232017D01*
X170569342Y-106232017D02*
X170664580Y-106184398D01*
X170664580Y-106184398D02*
X170712200Y-106136779D01*
X170712200Y-106136779D02*
X170759819Y-106041541D01*
X170759819Y-106041541D02*
X170759819Y-105898684D01*
X170093152Y-107089160D02*
X170902676Y-107089160D01*
X170902676Y-107089160D02*
X170997914Y-107041541D01*
X170997914Y-107041541D02*
X171045533Y-106993922D01*
X171045533Y-106993922D02*
X171093152Y-106898684D01*
X171093152Y-106898684D02*
X171093152Y-106755827D01*
X171093152Y-106755827D02*
X171045533Y-106660589D01*
X170712200Y-107089160D02*
X170759819Y-106993922D01*
X170759819Y-106993922D02*
X170759819Y-106803446D01*
X170759819Y-106803446D02*
X170712200Y-106708208D01*
X170712200Y-106708208D02*
X170664580Y-106660589D01*
X170664580Y-106660589D02*
X170569342Y-106612970D01*
X170569342Y-106612970D02*
X170283628Y-106612970D01*
X170283628Y-106612970D02*
X170188390Y-106660589D01*
X170188390Y-106660589D02*
X170140771Y-106708208D01*
X170140771Y-106708208D02*
X170093152Y-106803446D01*
X170093152Y-106803446D02*
X170093152Y-106993922D01*
X170093152Y-106993922D02*
X170140771Y-107089160D01*
X173670363Y-100729819D02*
X173670363Y-100967914D01*
X173908458Y-100872676D02*
X173670363Y-100967914D01*
X173670363Y-100967914D02*
X173432268Y-100872676D01*
X173813220Y-101158390D02*
X173670363Y-100967914D01*
X173670363Y-100967914D02*
X173527506Y-101158390D01*
M02*
