%TF.GenerationSoftware,KiCad,Pcbnew,8.0.1*%
%TF.CreationDate,2024-08-12T12:56:14+02:00*%
%TF.ProjectId,Test_NH,54657374-5f4e-4482-9e6b-696361645f70,rev?*%
%TF.SameCoordinates,Original*%
%TF.FileFunction,Profile,NP*%
%FSLAX46Y46*%
G04 Gerber Fmt 4.6, Leading zero omitted, Abs format (unit mm)*
G04 Created by KiCad (PCBNEW 8.0.1) date 2024-08-12 12:56:14*
%MOMM*%
%LPD*%
G01*
G04 APERTURE LIST*
%TA.AperFunction,Profile*%
%ADD10C,0.100000*%
%TD*%
G04 APERTURE END LIST*
D10*
X192275000Y-98325000D02*
X192275000Y-108525000D01*
X192260000Y-112995000D02*
X192260000Y-117995000D01*
X147360000Y-104855000D02*
X135580000Y-104855000D01*
X167260000Y-112995000D02*
X167260000Y-117995000D01*
X131320000Y-117925000D02*
X106320000Y-117925000D01*
X106320000Y-112925000D02*
X131320000Y-112925000D01*
X106310000Y-98365000D02*
X106310000Y-108565000D01*
X162500000Y-104815000D02*
X162500000Y-105170000D01*
X192275000Y-98325000D02*
X151225000Y-98325000D01*
X147360000Y-98365000D02*
X147360000Y-104855000D01*
X135580000Y-107930000D02*
X133180000Y-108565000D01*
X106320000Y-112925000D02*
X106320000Y-117925000D01*
X162500000Y-105170000D02*
X162500000Y-107770000D01*
X165405000Y-108525000D02*
X192275000Y-108525000D01*
X167260000Y-112995000D02*
X192260000Y-112995000D01*
X191165000Y-105575000D02*
G75*
G02*
X188565000Y-105575000I-1300000J0D01*
G01*
X188565000Y-105575000D02*
G75*
G02*
X191165000Y-105575000I1300000J0D01*
G01*
X151225000Y-104815000D02*
X162500000Y-104815000D01*
X119470000Y-108565000D02*
X106310000Y-108565000D01*
X131320000Y-112925000D02*
X131320000Y-117925000D01*
X165405000Y-108525000D02*
X162500000Y-107770000D01*
X106310000Y-98365000D02*
X147360000Y-98365000D01*
X110020000Y-105615000D02*
G75*
G02*
X107420000Y-105615000I-1300000J0D01*
G01*
X107420000Y-105615000D02*
G75*
G02*
X110020000Y-105615000I1300000J0D01*
G01*
X192260000Y-117995000D02*
X167260000Y-117995000D01*
X119470000Y-108565000D02*
X133180000Y-108565000D01*
X151225000Y-104815000D02*
X151225000Y-98325000D01*
X135580000Y-104855000D02*
X135580000Y-107930000D01*
M02*
