%TF.GenerationSoftware,KiCad,Pcbnew,8.0.1*%
%TF.CreationDate,2024-08-12T12:56:14+02:00*%
%TF.ProjectId,Test_NH,54657374-5f4e-4482-9e6b-696361645f70,rev?*%
%TF.SameCoordinates,Original*%
%TF.FileFunction,Legend,Top*%
%TF.FilePolarity,Positive*%
%FSLAX46Y46*%
G04 Gerber Fmt 4.6, Leading zero omitted, Abs format (unit mm)*
G04 Created by KiCad (PCBNEW 8.0.1) date 2024-08-12 12:56:14*
%MOMM*%
%LPD*%
G01*
G04 APERTURE LIST*
%ADD10C,0.150000*%
%ADD11C,0.120000*%
%ADD12C,0.000000*%
G04 APERTURE END LIST*
D10*
X113826009Y-106309887D02*
X113873628Y-106167030D01*
X113873628Y-106167030D02*
X113921247Y-106119411D01*
X113921247Y-106119411D02*
X114016485Y-106071792D01*
X114016485Y-106071792D02*
X114159342Y-106071792D01*
X114159342Y-106071792D02*
X114254580Y-106119411D01*
X114254580Y-106119411D02*
X114302200Y-106167030D01*
X114302200Y-106167030D02*
X114349819Y-106262268D01*
X114349819Y-106262268D02*
X114349819Y-106643220D01*
X114349819Y-106643220D02*
X113349819Y-106643220D01*
X113349819Y-106643220D02*
X113349819Y-106309887D01*
X113349819Y-106309887D02*
X113397438Y-106214649D01*
X113397438Y-106214649D02*
X113445057Y-106167030D01*
X113445057Y-106167030D02*
X113540295Y-106119411D01*
X113540295Y-106119411D02*
X113635533Y-106119411D01*
X113635533Y-106119411D02*
X113730771Y-106167030D01*
X113730771Y-106167030D02*
X113778390Y-106214649D01*
X113778390Y-106214649D02*
X113826009Y-106309887D01*
X113826009Y-106309887D02*
X113826009Y-106643220D01*
X114064104Y-105690839D02*
X114064104Y-105214649D01*
X114349819Y-105786077D02*
X113349819Y-105452744D01*
X113349819Y-105452744D02*
X114349819Y-105119411D01*
X113349819Y-104928934D02*
X113349819Y-104357506D01*
X114349819Y-104643220D02*
X113349819Y-104643220D01*
X182729636Y-106039819D02*
X182729636Y-106277914D01*
X182491541Y-106182676D02*
X182729636Y-106277914D01*
X182729636Y-106277914D02*
X182967731Y-106182676D01*
X182586779Y-106468390D02*
X182729636Y-106277914D01*
X182729636Y-106277914D02*
X182872493Y-106468390D01*
X184896779Y-107348866D02*
X185658684Y-107348866D01*
X185277731Y-107729819D02*
X185277731Y-106967914D01*
X110506779Y-104928866D02*
X111268684Y-104928866D01*
X110887731Y-105309819D02*
X110887731Y-104547914D01*
X186310112Y-105246009D02*
X186452969Y-105293628D01*
X186452969Y-105293628D02*
X186500588Y-105341247D01*
X186500588Y-105341247D02*
X186548207Y-105436485D01*
X186548207Y-105436485D02*
X186548207Y-105579342D01*
X186548207Y-105579342D02*
X186500588Y-105674580D01*
X186500588Y-105674580D02*
X186452969Y-105722200D01*
X186452969Y-105722200D02*
X186357731Y-105769819D01*
X186357731Y-105769819D02*
X185976779Y-105769819D01*
X185976779Y-105769819D02*
X185976779Y-104769819D01*
X185976779Y-104769819D02*
X186310112Y-104769819D01*
X186310112Y-104769819D02*
X186405350Y-104817438D01*
X186405350Y-104817438D02*
X186452969Y-104865057D01*
X186452969Y-104865057D02*
X186500588Y-104960295D01*
X186500588Y-104960295D02*
X186500588Y-105055533D01*
X186500588Y-105055533D02*
X186452969Y-105150771D01*
X186452969Y-105150771D02*
X186405350Y-105198390D01*
X186405350Y-105198390D02*
X186310112Y-105246009D01*
X186310112Y-105246009D02*
X185976779Y-105246009D01*
X186929160Y-105484104D02*
X187405350Y-105484104D01*
X186833922Y-105769819D02*
X187167255Y-104769819D01*
X187167255Y-104769819D02*
X187500588Y-105769819D01*
X187691065Y-104769819D02*
X188262493Y-104769819D01*
X187976779Y-105769819D02*
X187976779Y-104769819D01*
X110476779Y-106398866D02*
X111238684Y-106398866D01*
X115429636Y-100369819D02*
X115429636Y-100607914D01*
X115191541Y-100512676D02*
X115429636Y-100607914D01*
X115429636Y-100607914D02*
X115667731Y-100512676D01*
X115286779Y-100798390D02*
X115429636Y-100607914D01*
X115429636Y-100607914D02*
X115572493Y-100798390D01*
X189006779Y-107398866D02*
X189768684Y-107398866D01*
X116824819Y-104460299D02*
X117062914Y-104460299D01*
X116967676Y-104698394D02*
X117062914Y-104460299D01*
X117062914Y-104460299D02*
X116967676Y-104222204D01*
X117253390Y-104603156D02*
X117062914Y-104460299D01*
X117062914Y-104460299D02*
X117253390Y-104317442D01*
X117915180Y-104460300D02*
X117677085Y-104460300D01*
X117772323Y-104222205D02*
X117677085Y-104460300D01*
X117677085Y-104460300D02*
X117772323Y-104698395D01*
X117486609Y-104317443D02*
X117677085Y-104460300D01*
X117677085Y-104460300D02*
X117486609Y-104603157D01*
X181244819Y-102229799D02*
X181482914Y-102229799D01*
X181387676Y-102467894D02*
X181482914Y-102229799D01*
X181482914Y-102229799D02*
X181387676Y-101991704D01*
X181673390Y-102372656D02*
X181482914Y-102229799D01*
X181482914Y-102229799D02*
X181673390Y-102086942D01*
X181244819Y-102229799D02*
X181482914Y-102229799D01*
X181387676Y-102467894D02*
X181482914Y-102229799D01*
X181482914Y-102229799D02*
X181387676Y-101991704D01*
X181673390Y-102372656D02*
X181482914Y-102229799D01*
X181482914Y-102229799D02*
X181673390Y-102086942D01*
D11*
%TO.C,U1*%
X110861300Y-102781400D02*
X112918700Y-102781400D01*
X112918700Y-99428600D02*
X110861300Y-99428600D01*
X112918700Y-101432660D02*
X112918700Y-100777340D01*
%TO.C,U2*%
X119850000Y-101625000D02*
X119850000Y-101515000D01*
X119850000Y-105495000D02*
X119850000Y-105145000D01*
X120200000Y-105495000D02*
X119850000Y-105495000D01*
X123720000Y-101275000D02*
X124070000Y-101275000D01*
X123720000Y-105495000D02*
X124070000Y-105495000D01*
X124070000Y-101275000D02*
X124070000Y-101625000D01*
X124070000Y-105495000D02*
X124070000Y-105145000D01*
X119850000Y-101275000D02*
X119610000Y-100945000D01*
X120090000Y-100945000D01*
X119850000Y-101275000D01*
G36*
X119850000Y-101275000D02*
G01*
X119610000Y-100945000D01*
X120090000Y-100945000D01*
X119850000Y-101275000D01*
G37*
%TO.C,L3*%
X130105000Y-104002300D02*
X130105000Y-104202700D01*
X130825000Y-104002300D02*
X130825000Y-104202700D01*
%TO.C,L6*%
X168180000Y-101895200D02*
X168180000Y-101694800D01*
X168900000Y-101895200D02*
X168900000Y-101694800D01*
%TO.C,U5*%
X174920000Y-101425000D02*
X174920000Y-101775000D01*
X174920000Y-105645000D02*
X174920000Y-105295000D01*
X175270000Y-101425000D02*
X174920000Y-101425000D01*
X175270000Y-105645000D02*
X174920000Y-105645000D01*
X178790000Y-101425000D02*
X179140000Y-101425000D01*
X179140000Y-101425000D02*
X179140000Y-101775000D01*
X179140000Y-105295000D02*
X179140000Y-105405000D01*
X179380000Y-105975000D02*
X178900000Y-105975000D01*
X179140000Y-105645000D01*
X179380000Y-105975000D01*
G36*
X179380000Y-105975000D02*
G01*
X178900000Y-105975000D01*
X179140000Y-105645000D01*
X179380000Y-105975000D01*
G37*
D12*
%TO.C,U3*%
G36*
X116310501Y-107406700D02*
G01*
X115929500Y-107406700D01*
X115929500Y-107152700D01*
X116310501Y-107152700D01*
X116310501Y-107406700D01*
G37*
D11*
%TO.C,L5*%
X169330000Y-101694800D02*
X169330000Y-101895200D01*
X170050000Y-101694800D02*
X170050000Y-101895200D01*
%TO.C,L1*%
X116950000Y-101504800D02*
X116950000Y-101705200D01*
X117670000Y-101504800D02*
X117670000Y-101705200D01*
%TO.C,U4*%
X185973600Y-100456300D02*
X185973600Y-102513700D01*
X187977660Y-100456300D02*
X187322340Y-100456300D01*
X189326400Y-102513700D02*
X189326400Y-100456300D01*
%TO.C,L4*%
X181080000Y-106047700D02*
X181080000Y-105847300D01*
X181800000Y-106047700D02*
X181800000Y-105847300D01*
D12*
%TO.C,U6*%
G36*
X183230500Y-99537400D02*
G01*
X182849499Y-99537400D01*
X182849499Y-99283400D01*
X183230500Y-99283400D01*
X183230500Y-99537400D01*
G37*
D11*
%TO.C,L2*%
X128945000Y-104202700D02*
X128945000Y-104002300D01*
X129665000Y-104202700D02*
X129665000Y-104002300D01*
%TD*%
M02*
